<svg width="1144" height="801" viewBox="0 0 1144 801" fill="none" xmlns="http://www.w3.org/2000/svg">
<g id="Braincloud">
<path id="Frame" d="M559.44 38.4074C480.884 7.87107 392.664 51.1309 358.374 76.5779C310.055 63.8544 213.419 55.2025 213.419 122.383C97.4546 122.383 68.4636 203.813 68.4636 244.528C46.6424 248.345 3 277.355 3 362.857C3 515.539 193.156 530.807 288.234 519.356C311.614 551.164 375.207 614.782 442.541 614.782C644.543 617.835 691.926 738.2 690.368 798H788.563V694.94C874.289 702.574 1045.74 678.145 1045.74 519.356C1171.99 477.368 1134.58 450.649 1139.26 336.137C1143 244.528 1078.47 224.171 1045.74 225.443C1047.3 175.821 1016.75 81.1584 882.082 99.4804C859.638 17.0322 772.976 24.4117 732.451 38.4074C701.278 11.6882 623.034 -25.7189 559.44 38.4074Z" fill="#3C3C3C" fill-opacity="0.8" stroke="white" stroke-width="5"/>
<g id="Machine_Learning">
<path d="M378.856 474.688V509.179H374.429V483.46L363.239 509.179H360.125L348.886 483.41V509.179H344.458V474.688H349.227L361.682 503.198L374.137 474.688H378.856Z" fill="white"/>
<path d="M384.711 495.423C384.711 492.631 385.262 490.189 386.365 488.096C387.468 485.969 388.976 484.324 390.89 483.161C392.836 481.998 394.993 481.417 397.361 481.417C399.696 481.417 401.723 481.932 403.442 482.962C405.161 483.992 406.443 485.288 407.286 486.849V481.865H411.762V509.179H407.286V504.095C406.41 505.69 405.096 507.019 403.345 508.083C401.626 509.113 399.615 509.628 397.312 509.628C394.944 509.628 392.803 509.03 390.89 507.833C388.976 506.637 387.468 504.959 386.365 502.799C385.262 500.639 384.711 498.181 384.711 495.423ZM407.286 495.472C407.286 493.412 406.88 491.618 406.07 490.089C405.259 488.561 404.156 487.398 402.761 486.6C401.399 485.77 399.891 485.354 398.236 485.354C396.582 485.354 395.074 485.753 393.712 486.55C392.349 487.348 391.263 488.511 390.452 490.039C389.641 491.568 389.235 493.362 389.235 495.423C389.235 497.516 389.641 499.344 390.452 500.905C391.263 502.434 392.349 503.613 393.712 504.444C395.074 505.242 396.582 505.64 398.236 505.64C399.891 505.64 401.399 505.242 402.761 504.444C404.156 503.613 405.259 502.434 406.07 500.905C406.88 499.344 407.286 497.533 407.286 495.472Z" fill="white"/>
<path d="M417.59 495.472C417.59 492.648 418.141 490.189 419.244 488.096C420.347 485.969 421.871 484.324 423.817 483.161C425.796 481.998 428.05 481.417 430.58 481.417C433.856 481.417 436.548 482.231 438.657 483.859C440.797 485.487 442.208 487.747 442.889 490.638H438.121C437.667 488.976 436.775 487.664 435.445 486.7C434.148 485.736 432.526 485.254 430.58 485.254C428.05 485.254 426.007 486.152 424.45 487.946C422.893 489.707 422.114 492.216 422.114 495.472C422.114 498.762 422.893 501.304 424.45 503.098C426.007 504.893 428.05 505.79 430.58 505.79C432.526 505.79 434.148 505.325 435.445 504.394C436.743 503.464 437.635 502.135 438.121 500.407H442.889C442.176 503.198 440.749 505.441 438.608 507.136C436.467 508.797 433.791 509.628 430.58 509.628C428.05 509.628 425.796 509.046 423.817 507.883C421.871 506.72 420.347 505.075 419.244 502.949C418.141 500.822 417.59 498.33 417.59 495.472Z" fill="white"/>
<path d="M462.031 481.367C464.042 481.367 465.858 481.815 467.48 482.712C469.102 483.576 470.367 484.889 471.275 486.65C472.215 488.411 472.686 490.554 472.686 493.08V509.179H468.307V493.728C468.307 491.003 467.642 488.926 466.312 487.497C464.982 486.035 463.166 485.304 460.863 485.304C458.528 485.304 456.663 486.052 455.268 487.547C453.906 489.043 453.224 491.219 453.224 494.077V509.179H448.797V472.295H453.224V485.753C454.1 484.357 455.3 483.277 456.825 482.513C458.382 481.749 460.117 481.367 462.031 481.367Z" fill="white"/>
<path d="M482.205 477.429C481.361 477.429 480.648 477.13 480.064 476.532C479.48 475.934 479.188 475.203 479.188 474.339C479.188 473.475 479.48 472.744 480.064 472.146C480.648 471.548 481.361 471.249 482.205 471.249C483.016 471.249 483.697 471.548 484.248 472.146C484.832 472.744 485.124 473.475 485.124 474.339C485.124 475.203 484.832 475.934 484.248 476.532C483.697 477.13 483.016 477.429 482.205 477.429ZM484.345 481.865V509.179H479.918V481.865H484.345Z" fill="white"/>
<path d="M504.882 481.367C508.125 481.367 510.752 482.38 512.763 484.407C514.774 486.401 515.78 489.292 515.78 493.08V509.179H511.401V493.728C511.401 491.003 510.736 488.926 509.406 487.497C508.077 486.035 506.26 485.304 503.957 485.304C501.622 485.304 499.757 486.052 498.362 487.547C497 489.043 496.319 491.219 496.319 494.077V509.179H491.891V481.865H496.319V485.753C497.194 484.357 498.378 483.277 499.87 482.513C501.395 481.749 503.065 481.367 504.882 481.367Z" fill="white"/>
<path d="M547.339 494.475C547.339 495.339 547.29 496.253 547.193 497.217H525.883C526.045 499.908 526.937 502.018 528.559 503.547C530.213 505.042 532.208 505.79 534.543 505.79C536.457 505.79 538.046 505.341 539.311 504.444C540.608 503.514 541.517 502.284 542.036 500.756H546.804C546.09 503.381 544.663 505.524 542.522 507.186C540.381 508.814 537.722 509.628 534.543 509.628C532.013 509.628 529.743 509.046 527.732 507.883C525.753 506.72 524.196 505.075 523.061 502.949C521.926 500.789 521.358 498.297 521.358 495.472C521.358 492.648 521.909 490.172 523.012 488.046C524.115 485.919 525.656 484.291 527.634 483.161C529.645 481.998 531.948 481.417 534.543 481.417C537.073 481.417 539.311 481.981 541.257 483.111C543.203 484.241 544.695 485.803 545.733 487.796C546.804 489.757 547.339 491.983 547.339 494.475ZM542.765 493.528C542.765 491.801 542.392 490.322 541.646 489.092C540.9 487.83 539.879 486.883 538.581 486.251C537.316 485.587 535.905 485.254 534.348 485.254C532.11 485.254 530.197 485.986 528.607 487.448C527.05 488.91 526.158 490.937 525.931 493.528H542.765Z" fill="white"/>
<path d="M570.581 505.491H582.453V509.179H566.154V474.439H570.581V505.491Z" fill="white"/>
<path d="M611.481 494.475C611.481 495.339 611.433 496.253 611.335 497.217H590.025C590.187 499.908 591.079 502.018 592.701 503.547C594.355 505.042 596.35 505.79 598.686 505.79C600.599 505.79 602.189 505.341 603.454 504.444C604.751 503.514 605.659 502.284 606.178 500.756H610.946C610.233 503.381 608.805 505.524 606.665 507.186C604.524 508.814 601.864 509.628 598.686 509.628C596.156 509.628 593.885 509.046 591.874 507.883C589.896 506.72 588.339 505.075 587.203 502.949C586.068 500.789 585.5 498.297 585.5 495.472C585.5 492.648 586.052 490.172 587.155 488.046C588.258 485.919 589.798 484.291 591.777 483.161C593.788 481.998 596.091 481.417 598.686 481.417C601.216 481.417 603.454 481.981 605.4 483.111C607.346 484.241 608.838 485.803 609.876 487.796C610.946 489.757 611.481 491.983 611.481 494.475ZM606.908 493.528C606.908 491.801 606.535 490.322 605.789 489.092C605.043 487.83 604.021 486.883 602.724 486.251C601.459 485.587 600.048 485.254 598.491 485.254C596.253 485.254 594.339 485.986 592.75 487.448C591.193 488.91 590.301 490.937 590.074 493.528H606.908Z" fill="white"/>
<path d="M615.671 495.423C615.671 492.631 616.223 490.189 617.325 488.096C618.428 485.969 619.936 484.324 621.85 483.161C623.796 481.998 625.953 481.417 628.321 481.417C630.656 481.417 632.684 481.932 634.403 482.962C636.122 483.992 637.403 485.288 638.246 486.849V481.865H642.722V509.179H638.246V504.095C637.371 505.69 636.057 507.019 634.305 508.083C632.586 509.113 630.575 509.628 628.272 509.628C625.905 509.628 623.764 509.03 621.85 507.833C619.936 506.637 618.428 504.959 617.325 502.799C616.223 500.639 615.671 498.181 615.671 495.423ZM638.246 495.472C638.246 493.412 637.841 491.618 637.03 490.089C636.219 488.561 635.116 487.398 633.722 486.6C632.359 485.77 630.851 485.354 629.197 485.354C627.543 485.354 626.034 485.753 624.672 486.55C623.31 487.348 622.223 488.511 621.412 490.039C620.601 491.568 620.196 493.362 620.196 495.423C620.196 497.516 620.601 499.344 621.412 500.905C622.223 502.434 623.31 503.613 624.672 504.444C626.034 505.242 627.543 505.64 629.197 505.64C630.851 505.64 632.359 505.242 633.722 504.444C635.116 503.613 636.219 502.434 637.03 500.905C637.841 499.344 638.246 497.533 638.246 495.472Z" fill="white"/>
<path d="M654.632 486.301C655.41 484.739 656.513 483.527 657.94 482.663C659.4 481.799 661.168 481.367 663.243 481.367V486.052H662.076C657.113 486.052 654.632 488.81 654.632 494.326V509.179H650.204V481.865H654.632V486.301Z" fill="white"/>
<path d="M681.345 481.367C684.588 481.367 687.216 482.38 689.227 484.407C691.238 486.401 692.243 489.292 692.243 493.08V509.179H687.864V493.728C687.864 491.003 687.199 488.926 685.87 487.497C684.54 486.035 682.723 485.304 680.42 485.304C678.085 485.304 676.22 486.052 674.825 487.547C673.463 489.043 672.782 491.219 672.782 494.077V509.179H668.354V481.865H672.782V485.753C673.658 484.357 674.841 483.277 676.333 482.513C677.858 481.749 679.528 481.367 681.345 481.367Z" fill="white"/>
<path d="M701.762 477.429C700.919 477.429 700.205 477.13 699.621 476.532C699.037 475.934 698.746 475.203 698.746 474.339C698.746 473.475 699.037 472.744 699.621 472.146C700.205 471.548 700.919 471.249 701.762 471.249C702.573 471.249 703.254 471.548 703.805 472.146C704.389 472.744 704.681 473.475 704.681 474.339C704.681 475.203 704.389 475.934 703.805 476.532C703.254 477.13 702.573 477.429 701.762 477.429ZM703.903 481.865V509.179H699.475V481.865H703.903Z" fill="white"/>
<path d="M724.439 481.367C727.683 481.367 730.31 482.38 732.321 484.407C734.332 486.401 735.337 489.292 735.337 493.08V509.179H730.959V493.728C730.959 491.003 730.294 488.926 728.964 487.497C727.634 486.035 725.818 485.304 723.515 485.304C721.179 485.304 719.314 486.052 717.919 487.547C716.557 489.043 715.876 491.219 715.876 494.077V509.179H711.449V481.865H715.876V485.753C716.752 484.357 717.936 483.277 719.428 482.513C720.952 481.749 722.623 481.367 724.439 481.367Z" fill="white"/>
<path d="M753.565 481.417C755.868 481.417 757.879 481.932 759.598 482.962C761.35 483.992 762.647 485.288 763.491 486.849V481.865H767.967V509.777C767.967 512.27 767.448 514.479 766.41 516.407C765.372 518.367 763.88 519.896 761.934 520.992C760.02 522.089 757.782 522.637 755.219 522.637C751.716 522.637 748.797 521.79 746.462 520.095C744.126 518.4 742.748 516.091 742.326 513.167H746.705C747.192 514.828 748.197 516.157 749.722 517.154C751.246 518.184 753.079 518.699 755.219 518.699C757.652 518.699 759.631 517.918 761.155 516.357C762.712 514.795 763.491 512.602 763.491 509.777V504.045C762.615 505.64 761.317 506.97 759.598 508.033C757.879 509.096 755.868 509.628 753.565 509.628C751.197 509.628 749.04 509.03 747.094 507.833C745.181 506.637 743.672 504.959 742.57 502.799C741.467 500.639 740.915 498.181 740.915 495.423C740.915 492.631 741.467 490.189 742.57 488.096C743.672 485.969 745.181 484.324 747.094 483.161C749.04 481.998 751.197 481.417 753.565 481.417ZM763.491 495.472C763.491 493.412 763.085 491.618 762.274 490.089C761.463 488.561 760.36 487.398 758.966 486.6C757.603 485.77 756.095 485.354 754.441 485.354C752.787 485.354 751.279 485.753 749.916 486.55C748.554 487.348 747.467 488.511 746.656 490.039C745.846 491.568 745.44 493.362 745.44 495.423C745.44 497.516 745.846 499.344 746.656 500.905C747.467 502.434 748.554 503.613 749.916 504.444C751.279 505.242 752.787 505.64 754.441 505.64C756.095 505.64 757.603 505.242 758.966 504.444C760.36 503.613 761.463 502.434 762.274 500.905C763.085 499.344 763.491 497.533 763.491 495.472Z" fill="white"/>
</g>
<g id="Data_Mining">
<path d="M473.481 84.2359C476.07 84.2359 478.306 84.736 480.191 85.7362C482.098 86.7131 483.551 88.1204 484.55 89.9579C485.572 91.7955 486.083 93.9587 486.083 96.4475C486.083 98.9364 485.572 101.1 484.55 102.937C483.551 104.751 482.098 106.147 480.191 107.124C478.306 108.078 476.07 108.554 473.481 108.554H466.091V84.2359H473.481ZM473.481 105.938C476.546 105.938 478.885 105.112 480.497 103.46C482.109 101.786 482.915 99.4481 482.915 96.4475C482.915 93.4237 482.098 91.0628 480.463 89.3648C478.851 87.6668 476.524 86.8178 473.481 86.8178H469.19V105.938H473.481Z" fill="white"/>
<path d="M489.013 98.9247C489.013 96.9709 489.398 95.2613 490.17 93.7959C490.942 92.3072 491.998 91.1558 493.338 90.3417C494.7 89.5276 496.21 89.1206 497.867 89.1206C499.502 89.1206 500.921 89.4811 502.125 90.2022C503.328 90.9232 504.225 91.8304 504.815 92.9236V89.4346H507.948V108.554H504.815V104.996C504.202 106.112 503.283 107.043 502.056 107.787C500.853 108.508 499.445 108.868 497.833 108.868C496.176 108.868 494.677 108.45 493.338 107.612C491.998 106.775 490.942 105.6 490.17 104.089C489.398 102.577 489.013 100.855 489.013 98.9247ZM504.815 98.9596C504.815 97.5175 504.531 96.2615 503.964 95.1915C503.396 94.1215 502.624 93.3074 501.648 92.7492C500.694 92.1677 499.638 91.8769 498.48 91.8769C497.322 91.8769 496.267 92.156 495.313 92.7143C494.359 93.2725 493.599 94.0866 493.031 95.1566C492.464 96.2266 492.18 97.4826 492.18 98.9247C492.18 100.39 492.464 101.669 493.031 102.763C493.599 103.833 494.359 104.658 495.313 105.24C496.267 105.798 497.322 106.077 498.48 106.077C499.638 106.077 500.694 105.798 501.648 105.24C502.624 104.658 503.396 103.833 503.964 102.763C504.531 101.669 504.815 100.402 504.815 98.9596Z" fill="white"/>
<path d="M516.966 92.0514V103.321C516.966 104.251 517.159 104.914 517.545 105.31C517.931 105.682 518.601 105.868 519.554 105.868H521.836V108.554H519.044C517.318 108.554 516.024 108.147 515.161 107.333C514.298 106.519 513.867 105.182 513.867 103.321V92.0514H511.449V89.4346H513.867V84.6197H516.966V89.4346H521.836V92.0514H516.966Z" fill="white"/>
<path d="M524.433 98.9247C524.433 96.9709 524.819 95.2613 525.591 93.7959C526.363 92.3072 527.419 91.1558 528.759 90.3417C530.121 89.5276 531.631 89.1206 533.288 89.1206C534.923 89.1206 536.342 89.4811 537.545 90.2022C538.749 90.9232 539.646 91.8304 540.236 92.9236V89.4346H543.369V108.554H540.236V104.996C539.623 106.112 538.703 107.043 537.477 107.787C536.274 108.508 534.866 108.868 533.254 108.868C531.597 108.868 530.098 108.45 528.759 107.612C527.419 106.775 526.363 105.6 525.591 104.089C524.819 102.577 524.433 100.855 524.433 98.9247ZM540.236 98.9596C540.236 97.5175 539.952 96.2615 539.385 95.1915C538.817 94.1215 538.045 93.3074 537.069 92.7492C536.115 92.1677 535.059 91.8769 533.901 91.8769C532.743 91.8769 531.688 92.156 530.734 92.7143C529.78 93.2725 529.02 94.0866 528.452 95.1566C527.885 96.2266 527.601 97.4826 527.601 98.9247C527.601 100.39 527.885 101.669 528.452 102.763C529.02 103.833 529.78 104.658 530.734 105.24C531.688 105.798 532.743 106.077 533.901 106.077C535.059 106.077 536.115 105.798 537.069 105.24C538.045 104.658 538.817 103.833 539.385 102.763C539.952 101.669 540.236 100.402 540.236 98.9596Z" fill="white"/>
<path d="M581.765 84.4104V108.554H578.666V90.5511L570.832 108.554H568.653L560.786 90.5162V108.554H557.686V84.4104H561.024L569.743 104.368L578.461 84.4104H581.765Z" fill="white"/>
<path d="M588.622 86.3294C588.031 86.3294 587.532 86.12 587.123 85.7013C586.714 85.2826 586.51 84.7709 586.51 84.1662C586.51 83.5614 586.714 83.0497 587.123 82.631C587.532 82.2123 588.031 82.003 588.622 82.003C589.189 82.003 589.666 82.2123 590.052 82.631C590.461 83.0497 590.665 83.5614 590.665 84.1662C590.665 84.7709 590.461 85.2826 590.052 85.7013C589.666 86.12 589.189 86.3294 588.622 86.3294ZM590.12 89.4346V108.554H587.021V89.4346H590.12Z" fill="white"/>
<path d="M604.495 89.0857C606.766 89.0857 608.605 89.7951 610.013 91.214C611.42 92.6096 612.124 94.6332 612.124 97.2849V108.554H609.059V97.7385C609.059 95.8311 608.594 94.3774 607.663 93.3772C606.732 92.3537 605.46 91.842 603.848 91.842C602.214 91.842 600.908 92.3654 599.932 93.4121C598.978 94.4588 598.501 95.9823 598.501 97.9827V108.554H595.402V89.4346H598.501V92.156C599.114 91.1791 599.943 90.4231 600.988 89.8882C602.055 89.3532 603.224 89.0857 604.495 89.0857Z" fill="white"/>
<path d="M618.788 86.3294C618.197 86.3294 617.698 86.12 617.289 85.7013C616.88 85.2826 616.676 84.7709 616.676 84.1662C616.676 83.5614 616.88 83.0497 617.289 82.631C617.698 82.2123 618.197 82.003 618.788 82.003C619.355 82.003 619.832 82.2123 620.218 82.631C620.627 83.0497 620.831 83.5614 620.831 84.1662C620.831 84.7709 620.627 85.2826 620.218 85.7013C619.832 86.12 619.355 86.3294 618.788 86.3294ZM620.286 89.4346V108.554H617.187V89.4346H620.286Z" fill="white"/>
<path d="M634.661 89.0857C636.932 89.0857 638.771 89.7951 640.179 91.214C641.586 92.6096 642.29 94.6332 642.29 97.2849V108.554H639.225V97.7385C639.225 95.8311 638.76 94.3774 637.829 93.3772C636.898 92.3537 635.626 91.842 634.014 91.842C632.38 91.842 631.074 92.3654 630.098 93.4121C629.144 94.4588 628.667 95.9823 628.667 97.9827V108.554H625.568V89.4346H628.667V92.156C629.28 91.1791 630.109 90.4231 631.154 89.8882C632.221 89.3532 633.39 89.0857 634.661 89.0857Z" fill="white"/>
<path d="M655.05 89.1206C656.662 89.1206 658.07 89.4811 659.273 90.2022C660.499 90.9232 661.407 91.8304 661.997 92.9236V89.4346H665.131V108.973C665.131 110.718 664.767 112.264 664.041 113.614C663.314 114.986 662.27 116.056 660.908 116.823C659.568 117.591 658.001 117.975 656.208 117.975C653.756 117.975 651.712 117.382 650.077 116.195C648.443 115.009 647.478 113.393 647.183 111.346H650.248C650.588 112.509 651.292 113.439 652.359 114.137C653.426 114.858 654.709 115.219 656.208 115.219C657.911 115.219 659.296 114.672 660.363 113.579C661.453 112.485 661.997 110.95 661.997 108.973V104.961C661.384 106.077 660.476 107.008 659.273 107.752C658.07 108.496 656.662 108.868 655.05 108.868C653.392 108.868 651.882 108.45 650.52 107.612C649.181 106.775 648.125 105.6 647.353 104.089C646.581 102.577 646.195 100.855 646.195 98.9247C646.195 96.9709 646.581 95.2613 647.353 93.7959C648.125 92.3072 649.181 91.1558 650.52 90.3417C651.882 89.5276 653.392 89.1206 655.05 89.1206ZM661.997 98.9596C661.997 97.5175 661.714 96.2615 661.146 95.1915C660.578 94.1215 659.806 93.3074 658.83 92.7492C657.877 92.1677 656.821 91.8769 655.663 91.8769C654.505 91.8769 653.449 92.156 652.495 92.7143C651.542 93.2725 650.781 94.0866 650.214 95.1566C649.646 96.2266 649.362 97.4826 649.362 98.9247C649.362 100.39 649.646 101.669 650.214 102.763C650.781 103.833 651.542 104.658 652.495 105.24C653.449 105.798 654.505 106.077 655.663 106.077C656.821 106.077 657.877 105.798 658.83 105.24C659.806 104.658 660.578 103.833 661.146 102.763C661.714 101.669 661.997 100.402 661.997 98.9596Z" fill="white"/>
</g>
<g id="Frontend">
<path d="M111.925 410.543V412.388H104.554V418.244H110.539V420.088H104.554V427.914H102.341V410.543H111.925Z" fill="white"/>
<path d="M116.813 416.475C117.202 415.694 117.753 415.087 118.467 414.655C119.197 414.223 120.081 414.007 121.119 414.007V416.35H120.535C118.053 416.35 116.813 417.729 116.813 420.487V427.914H114.599V414.257H116.813V416.475Z" fill="white"/>
<path d="M129.488 428.138C128.239 428.138 127.104 427.847 126.082 427.266C125.077 426.684 124.282 425.862 123.698 424.799C123.131 423.719 122.847 422.472 122.847 421.06C122.847 419.665 123.139 418.435 123.723 417.372C124.323 416.292 125.134 415.47 126.155 414.905C127.177 414.323 128.32 414.032 129.585 414.032C130.85 414.032 131.994 414.323 133.015 414.905C134.037 415.47 134.84 416.284 135.424 417.347C136.024 418.41 136.324 419.648 136.324 421.06C136.324 422.472 136.016 423.719 135.399 424.799C134.799 425.862 133.98 426.684 132.942 427.266C131.904 427.847 130.753 428.138 129.488 428.138ZM129.488 426.144C130.283 426.144 131.029 425.953 131.726 425.571C132.423 425.189 132.983 424.616 133.405 423.851C133.842 423.087 134.061 422.157 134.061 421.06C134.061 419.964 133.851 419.033 133.429 418.269C133.007 417.505 132.456 416.94 131.775 416.574C131.094 416.192 130.356 416.001 129.561 416.001C128.75 416.001 128.004 416.192 127.323 416.574C126.658 416.94 126.123 417.505 125.717 418.269C125.312 419.033 125.109 419.964 125.109 421.06C125.109 422.173 125.304 423.112 125.693 423.876C126.099 424.641 126.634 425.214 127.299 425.596C127.964 425.962 128.693 426.144 129.488 426.144Z" fill="white"/>
<path d="M145.73 414.007C147.351 414.007 148.665 414.514 149.671 415.528C150.676 416.525 151.179 417.97 151.179 419.864V427.914H148.989V420.188C148.989 418.826 148.657 417.787 147.992 417.073C147.327 416.342 146.419 415.976 145.267 415.976C144.1 415.976 143.167 416.35 142.47 417.098C141.789 417.845 141.448 418.934 141.448 420.362V427.914H139.234V414.257H141.448V416.201C141.886 415.503 142.478 414.963 143.224 414.581C143.986 414.199 144.821 414.007 145.73 414.007Z" fill="white"/>
<path d="M157.495 416.126V424.175C157.495 424.84 157.633 425.314 157.909 425.596C158.184 425.862 158.663 425.995 159.344 425.995H160.974V427.914H158.979C157.747 427.914 156.822 427.623 156.206 427.041C155.59 426.46 155.281 425.505 155.281 424.175V416.126H153.554V414.257H155.281V410.817H157.495V414.257H160.974V416.126H157.495Z" fill="white"/>
<path d="M175.819 420.562C175.819 420.994 175.795 421.451 175.746 421.933H165.091C165.172 423.278 165.618 424.333 166.429 425.098C167.256 425.845 168.254 426.219 169.422 426.219C170.378 426.219 171.173 425.995 171.806 425.546C172.454 425.081 172.908 424.466 173.168 423.702H175.552C175.195 425.014 174.481 426.086 173.411 426.917C172.341 427.731 171.011 428.138 169.422 428.138C168.157 428.138 167.021 427.847 166.016 427.266C165.027 426.684 164.248 425.862 163.68 424.799C163.113 423.719 162.829 422.472 162.829 421.06C162.829 419.648 163.105 418.41 163.656 417.347C164.208 416.284 164.978 415.47 165.967 414.905C166.973 414.323 168.124 414.032 169.422 414.032C170.687 414.032 171.806 414.315 172.779 414.88C173.752 415.445 174.498 416.225 175.017 417.222C175.552 418.203 175.819 419.316 175.819 420.562ZM173.533 420.088C173.533 419.224 173.346 418.485 172.973 417.87C172.6 417.239 172.089 416.765 171.441 416.45C170.808 416.117 170.103 415.951 169.324 415.951C168.205 415.951 167.248 416.317 166.454 417.048C165.675 417.779 165.229 418.792 165.116 420.088H173.533Z" fill="white"/>
<path d="M185.237 414.007C186.858 414.007 188.172 414.514 189.178 415.528C190.183 416.525 190.686 417.97 190.686 419.864V427.914H188.496V420.188C188.496 418.826 188.164 417.787 187.499 417.073C186.834 416.342 185.926 415.976 184.774 415.976C183.607 415.976 182.674 416.35 181.977 417.098C181.296 417.845 180.955 418.934 180.955 420.362V427.914H178.741V414.257H180.955V416.201C181.393 415.503 181.985 414.963 182.731 414.581C183.493 414.199 184.328 414.007 185.237 414.007Z" fill="white"/>
<path d="M193.475 421.035C193.475 419.64 193.751 418.419 194.302 417.372C194.853 416.309 195.607 415.486 196.564 414.905C197.537 414.323 198.624 414.032 199.824 414.032C200.862 414.032 201.827 414.282 202.719 414.78C203.611 415.262 204.292 415.901 204.762 416.699V409.472H207V427.914H204.762V425.347C204.325 426.161 203.676 426.834 202.816 427.365C201.957 427.88 200.951 428.138 199.8 428.138C198.616 428.138 197.537 427.839 196.564 427.241C195.607 426.643 194.853 425.804 194.302 424.724C193.751 423.644 193.475 422.414 193.475 421.035ZM204.762 421.06C204.762 420.03 204.56 419.133 204.154 418.369C203.749 417.604 203.197 417.023 202.5 416.624C201.819 416.209 201.065 416.001 200.238 416.001C199.411 416.001 198.656 416.201 197.975 416.599C197.294 416.998 196.751 417.58 196.345 418.344C195.94 419.108 195.737 420.005 195.737 421.035C195.737 422.082 195.94 422.996 196.345 423.777C196.751 424.541 197.294 425.131 197.975 425.546C198.656 425.945 199.411 426.144 200.238 426.144C201.065 426.144 201.819 425.945 202.5 425.546C203.197 425.131 203.749 424.541 204.154 423.777C204.56 422.996 204.762 422.09 204.762 421.06Z" fill="white"/>
</g>
<g id="Backend">
<path d="M866.759 417.278C867.745 417.438 868.64 417.85 869.444 418.514C870.275 419.179 870.924 420.003 871.391 420.987C871.884 421.97 872.13 423.02 872.13 424.137C872.13 425.546 871.78 426.822 871.079 427.965C870.379 429.081 869.354 429.972 868.004 430.636C866.681 431.274 865.111 431.593 863.295 431.593H853.175V403.801H862.905C864.748 403.801 866.318 404.12 867.615 404.758C868.913 405.369 869.886 406.206 870.534 407.27C871.183 408.333 871.507 409.529 871.507 410.859C871.507 412.507 871.066 413.876 870.184 414.966C869.328 416.029 868.186 416.8 866.759 417.278ZM856.717 415.803H862.672C864.333 415.803 865.617 415.404 866.525 414.607C867.433 413.809 867.888 412.706 867.888 411.297C867.888 409.888 867.433 408.785 866.525 407.988C865.617 407.19 864.307 406.791 862.594 406.791H856.717V415.803ZM862.983 428.603C864.748 428.603 866.123 428.177 867.109 427.327C868.095 426.476 868.588 425.293 868.588 423.778C868.588 422.236 868.069 421.027 867.031 420.149C865.993 419.245 864.605 418.794 862.867 418.794H856.717V428.603H862.983Z" fill="white"/>
<path d="M875.722 420.588C875.722 418.355 876.163 416.401 877.045 414.726C877.928 413.025 879.134 411.709 880.665 410.779C882.222 409.848 883.948 409.383 885.842 409.383C887.71 409.383 889.332 409.795 890.707 410.619C892.082 411.443 893.107 412.48 893.782 413.73V409.742H897.363V431.593H893.782V427.526C893.081 428.802 892.031 429.865 890.629 430.716C889.254 431.54 887.645 431.952 885.803 431.952C883.909 431.952 882.196 431.474 880.665 430.517C879.134 429.56 877.928 428.217 877.045 426.489C876.163 424.761 875.722 422.794 875.722 420.588ZM893.782 420.628C893.782 418.98 893.458 417.544 892.809 416.321C892.16 415.099 891.278 414.168 890.162 413.53C889.072 412.866 887.866 412.533 886.542 412.533C885.219 412.533 884.012 412.852 882.923 413.49C881.833 414.128 880.964 415.059 880.315 416.281C879.666 417.504 879.342 418.94 879.342 420.588C879.342 422.263 879.666 423.725 880.315 424.974C880.964 426.197 881.833 427.141 882.923 427.805C884.012 428.443 885.219 428.762 886.542 428.762C887.866 428.762 889.072 428.443 890.162 427.805C891.278 427.141 892.16 426.197 892.809 424.974C893.458 423.725 893.782 422.276 893.782 420.628Z" fill="white"/>
<path d="M902.025 420.628C902.025 418.368 902.466 416.401 903.348 414.726C904.231 413.025 905.45 411.709 907.007 410.779C908.59 409.848 910.393 409.383 912.417 409.383C915.038 409.383 917.192 410.034 918.879 411.337C920.591 412.64 921.72 414.447 922.265 416.76H918.45C918.087 415.431 917.374 414.381 916.31 413.61C915.272 412.839 913.974 412.454 912.417 412.454C910.393 412.454 908.759 413.171 907.513 414.607C906.268 416.016 905.645 418.023 905.645 420.628C905.645 423.26 906.268 425.293 907.513 426.729C908.759 428.164 910.393 428.882 912.417 428.882C913.974 428.882 915.272 428.51 916.31 427.765C917.348 427.021 918.061 425.958 918.45 424.575H922.265C921.694 426.808 920.552 428.603 918.84 429.958C917.127 431.288 914.986 431.952 912.417 431.952C910.393 431.952 908.59 431.487 907.007 430.557C905.45 429.626 904.231 428.31 903.348 426.609C902.466 424.908 902.025 422.914 902.025 420.628Z" fill="white"/>
<path d="M938.901 431.593L930.533 421.944V431.593H926.991V402.086H930.533V419.432L938.746 409.742H943.689L933.647 420.628L943.728 431.593H938.901Z" fill="white"/>
<path d="M966.484 419.83C966.484 420.521 966.445 421.253 966.367 422.023H949.319C949.449 424.177 950.162 425.865 951.46 427.087C952.783 428.284 954.379 428.882 956.247 428.882C957.778 428.882 959.049 428.523 960.061 427.805C961.099 427.061 961.826 426.077 962.241 424.855H966.056C965.485 426.955 964.343 428.669 962.63 429.998C960.918 431.301 958.79 431.952 956.247 431.952C954.223 431.952 952.407 431.487 950.798 430.557C949.215 429.626 947.97 428.31 947.061 426.609C946.153 424.881 945.699 422.887 945.699 420.628C945.699 418.368 946.14 416.388 947.022 414.686C947.905 412.985 949.137 411.683 950.72 410.779C952.329 409.848 954.171 409.383 956.247 409.383C958.271 409.383 960.061 409.835 961.618 410.739C963.175 411.643 964.369 412.892 965.199 414.487C966.056 416.056 966.484 417.837 966.484 419.83ZM962.825 419.073C962.825 417.69 962.527 416.507 961.93 415.524C961.333 414.514 960.516 413.756 959.478 413.251C958.466 412.719 957.337 412.454 956.091 412.454C954.301 412.454 952.77 413.038 951.498 414.208C950.253 415.378 949.539 416.999 949.358 419.073H962.825Z" fill="white"/>
<path d="M981.551 409.343C984.146 409.343 986.248 410.154 987.857 411.776C989.466 413.371 990.27 415.683 990.27 418.714V431.593H986.767V419.232C986.767 417.052 986.235 415.391 985.171 414.248C984.107 413.078 982.654 412.493 980.812 412.493C978.944 412.493 977.451 413.092 976.336 414.288C975.246 415.484 974.701 417.225 974.701 419.511V431.593H971.159V409.742H974.701V412.852C975.402 411.736 976.349 410.872 977.542 410.26C978.762 409.649 980.098 409.343 981.551 409.343Z" fill="white"/>
<path d="M994.732 420.588C994.732 418.355 995.174 416.401 996.056 414.726C996.938 413.025 998.145 411.709 999.676 410.779C1001.23 409.848 1002.97 409.383 1004.89 409.383C1006.55 409.383 1008.1 409.782 1009.52 410.579C1010.95 411.35 1012.04 412.374 1012.79 413.65V402.086H1016.37V431.593H1012.79V427.486C1012.09 428.789 1011.05 429.865 1009.68 430.716C1008.3 431.54 1006.69 431.952 1004.85 431.952C1002.96 431.952 1001.23 431.474 999.676 430.517C998.145 429.56 996.938 428.217 996.056 426.489C995.174 424.761 994.732 422.794 994.732 420.588ZM1012.79 420.628C1012.79 418.98 1012.47 417.544 1011.82 416.321C1011.17 415.099 1010.29 414.168 1009.17 413.53C1008.08 412.866 1006.88 412.533 1005.55 412.533C1004.23 412.533 1003.02 412.852 1001.93 413.49C1000.84 414.128 999.974 415.059 999.325 416.281C998.677 417.504 998.352 418.94 998.352 420.588C998.352 422.263 998.677 423.725 999.325 424.974C999.974 426.197 1000.84 427.141 1001.93 427.805C1003.02 428.443 1004.23 428.762 1005.55 428.762C1006.88 428.762 1008.08 428.443 1009.17 427.805C1010.29 427.141 1011.17 426.197 1011.82 424.974C1012.47 423.725 1012.79 422.276 1012.79 420.628Z" fill="white"/>
</g>
<g id="Business_Intelligence">
<path d="M203.857 196.36C204.961 196.54 205.964 197.007 206.864 197.76C207.794 198.513 208.521 199.446 209.044 200.561C209.596 201.675 209.872 202.864 209.872 204.129C209.872 205.725 209.479 207.17 208.695 208.465C207.91 209.73 206.763 210.739 205.252 211.492C203.77 212.215 202.012 212.576 199.978 212.576H188.647V181.092H199.542C201.605 181.092 203.363 181.453 204.816 182.176C206.269 182.869 207.358 183.817 208.085 185.022C208.811 186.226 209.174 187.582 209.174 189.087C209.174 190.954 208.68 192.505 207.692 193.74C206.734 194.944 205.455 195.818 203.857 196.36ZM192.613 194.688H199.281C201.141 194.688 202.579 194.237 203.596 193.333C204.613 192.43 205.121 191.18 205.121 189.584C205.121 187.988 204.613 186.738 203.596 185.835C202.579 184.932 201.111 184.48 199.194 184.48H192.613V194.688ZM199.63 209.188C201.605 209.188 203.145 208.706 204.249 207.743C205.354 206.779 205.906 205.439 205.906 203.722C205.906 201.976 205.324 200.606 204.162 199.612C203 198.588 201.446 198.076 199.499 198.076H192.613V209.188H199.63Z" fill="white"/>
<path d="M236.557 187.822V212.576H232.591V208.917C231.835 210.182 230.775 211.176 229.409 211.898C228.073 212.591 226.591 212.937 224.964 212.937C223.104 212.937 221.433 212.546 219.952 211.763C218.47 210.95 217.293 209.745 216.421 208.149C215.579 206.553 215.157 204.611 215.157 202.322V187.822H219.08V201.78C219.08 204.219 219.676 206.101 220.867 207.426C222.058 208.721 223.685 209.369 225.748 209.369C227.869 209.369 229.54 208.691 230.76 207.336C231.98 205.981 232.591 204.009 232.591 201.419V187.822H236.557Z" fill="white"/>
<path d="M251.708 212.982C249.878 212.982 248.236 212.666 246.783 212.034C245.331 211.371 244.183 210.468 243.34 209.324C242.498 208.149 242.033 206.809 241.946 205.303H246.042C246.159 206.538 246.711 207.547 247.699 208.33C248.716 209.113 250.038 209.504 251.665 209.504C253.176 209.504 254.367 209.158 255.238 208.465C256.11 207.773 256.546 206.899 256.546 205.845C256.546 204.761 256.081 203.963 255.151 203.451C254.222 202.909 252.783 202.382 250.837 201.87C249.064 201.389 247.611 200.907 246.478 200.425C245.374 199.913 244.415 199.175 243.602 198.212C242.817 197.218 242.425 195.923 242.425 194.327C242.425 193.062 242.788 191.903 243.515 190.849C244.241 189.795 245.272 188.967 246.609 188.365C247.946 187.732 249.471 187.416 251.185 187.416C253.829 187.416 255.965 188.109 257.592 189.494C259.219 190.879 260.091 192.776 260.207 195.185H256.241C256.154 193.89 255.645 192.851 254.715 192.068C253.815 191.286 252.594 190.894 251.054 190.894C249.631 190.894 248.498 191.21 247.655 191.843C246.812 192.475 246.391 193.303 246.391 194.327C246.391 195.14 246.638 195.818 247.132 196.36C247.655 196.872 248.294 197.293 249.05 197.624C249.834 197.926 250.909 198.272 252.275 198.663C253.989 199.145 255.384 199.627 256.459 200.109C257.534 200.561 258.449 201.253 259.205 202.187C259.989 203.12 260.396 204.34 260.425 205.845C260.425 207.201 260.062 208.42 259.335 209.504C258.609 210.588 257.577 211.447 256.241 212.079C254.933 212.681 253.422 212.982 251.708 212.982Z" fill="white"/>
<path d="M268.072 183.802C267.316 183.802 266.677 183.531 266.154 182.989C265.631 182.447 265.37 181.785 265.37 181.002C265.37 180.219 265.631 179.556 266.154 179.014C266.677 178.472 267.316 178.201 268.072 178.201C268.798 178.201 269.408 178.472 269.902 179.014C270.425 179.556 270.687 180.219 270.687 181.002C270.687 181.785 270.425 182.447 269.902 182.989C269.408 183.531 268.798 183.802 268.072 183.802ZM269.99 187.822V212.576H266.024V187.822H269.99Z" fill="white"/>
<path d="M288.386 187.371C291.291 187.371 293.645 188.289 295.446 190.126C297.248 191.933 298.148 194.553 298.148 197.986V212.576H294.226V198.573C294.226 196.104 293.63 194.222 292.439 192.927C291.248 191.602 289.621 190.939 287.558 190.939C285.466 190.939 283.795 191.617 282.546 192.972C281.325 194.327 280.715 196.299 280.715 198.889V212.576H276.749V187.822H280.715V191.346C281.5 190.081 282.56 189.102 283.897 188.41C285.262 187.717 286.759 187.371 288.386 187.371Z" fill="white"/>
<path d="M326.418 199.251C326.418 200.034 326.375 200.862 326.288 201.735H307.198C307.343 204.174 308.143 206.086 309.595 207.472C311.077 208.827 312.864 209.504 314.956 209.504C316.67 209.504 318.094 209.098 319.227 208.285C320.389 207.442 321.203 206.327 321.668 204.942H325.939C325.3 207.321 324.021 209.263 322.104 210.769C320.186 212.245 317.803 212.982 314.956 212.982C312.69 212.982 310.656 212.455 308.854 211.401C307.082 210.347 305.687 208.857 304.67 206.93C303.653 204.972 303.145 202.714 303.145 200.154C303.145 197.594 303.639 195.351 304.627 193.424C305.615 191.496 306.995 190.021 308.767 188.997C310.569 187.943 312.632 187.416 314.956 187.416C317.222 187.416 319.227 187.928 320.97 188.952C322.714 189.976 324.05 191.391 324.98 193.198C325.939 194.974 326.418 196.992 326.418 199.251ZM322.322 198.392C322.322 196.826 321.987 195.486 321.319 194.372C320.651 193.228 319.736 192.37 318.573 191.797C317.44 191.195 316.176 190.894 314.782 190.894C312.777 190.894 311.063 191.557 309.639 192.882C308.244 194.207 307.445 196.043 307.242 198.392H322.322Z" fill="white"/>
<path d="M340.108 212.982C338.278 212.982 336.636 212.666 335.184 212.034C333.731 211.371 332.583 210.468 331.741 209.324C330.898 208.149 330.433 206.809 330.346 205.303H334.443C334.559 206.538 335.111 207.547 336.099 208.33C337.116 209.113 338.438 209.504 340.065 209.504C341.576 209.504 342.767 209.158 343.639 208.465C344.51 207.773 344.946 206.899 344.946 205.845C344.946 204.761 344.481 203.963 343.552 203.451C342.622 202.909 341.184 202.382 339.237 201.87C337.464 201.389 336.012 200.907 334.879 200.425C333.774 199.913 332.816 199.175 332.002 198.212C331.218 197.218 330.825 195.923 330.825 194.327C330.825 193.062 331.188 191.903 331.915 190.849C332.641 189.795 333.673 188.967 335.009 188.365C336.346 187.732 337.871 187.416 339.585 187.416C342.23 187.416 344.365 188.109 345.992 189.494C347.619 190.879 348.491 192.776 348.607 195.185H344.641C344.554 193.89 344.045 192.851 343.116 192.068C342.215 191.286 340.995 190.894 339.455 190.894C338.031 190.894 336.898 191.21 336.055 191.843C335.213 192.475 334.791 193.303 334.791 194.327C334.791 195.14 335.038 195.818 335.532 196.36C336.055 196.872 336.694 197.293 337.45 197.624C338.234 197.926 339.309 198.272 340.675 198.663C342.389 199.145 343.784 199.627 344.859 200.109C345.934 200.561 346.849 201.253 347.605 202.187C348.389 203.12 348.796 204.34 348.825 205.845C348.825 207.201 348.462 208.42 347.735 209.504C347.009 210.588 345.978 211.447 344.641 212.079C343.334 212.681 341.823 212.982 340.108 212.982Z" fill="white"/>
<path d="M362.879 212.982C361.048 212.982 359.407 212.666 357.954 212.034C356.501 211.371 355.354 210.468 354.511 209.324C353.668 208.149 353.203 206.809 353.116 205.303H357.213C357.329 206.538 357.881 207.547 358.869 208.33C359.886 209.113 361.208 209.504 362.835 209.504C364.346 209.504 365.537 209.158 366.409 208.465C367.281 207.773 367.717 206.899 367.717 205.845C367.717 204.761 367.252 203.963 366.322 203.451C365.392 202.909 363.954 202.382 362.007 201.87C360.235 201.389 358.782 200.907 357.649 200.425C356.545 199.913 355.586 199.175 354.772 198.212C353.988 197.218 353.596 195.923 353.596 194.327C353.596 193.062 353.959 191.903 354.685 190.849C355.412 189.795 356.443 188.967 357.78 188.365C359.116 187.732 360.642 187.416 362.356 187.416C365 187.416 367.135 188.109 368.763 189.494C370.39 190.879 371.261 192.776 371.378 195.185H367.411C367.324 193.89 366.816 192.851 365.886 192.068C364.985 191.286 363.765 190.894 362.225 190.894C360.801 190.894 359.668 191.21 358.826 191.843C357.983 192.475 357.562 193.303 357.562 194.327C357.562 195.14 357.809 195.818 358.303 196.36C358.826 196.872 359.465 197.293 360.22 197.624C361.005 197.926 362.08 198.272 363.445 198.663C365.16 199.145 366.554 199.627 367.629 200.109C368.704 200.561 369.62 201.253 370.375 202.187C371.16 203.12 371.566 204.34 371.595 205.845C371.595 207.201 371.232 208.42 370.506 209.504C369.78 210.588 368.748 211.447 367.411 212.079C366.104 212.681 364.593 212.982 362.879 212.982Z" fill="white"/>
<path d="M392.78 181.092V212.576H388.813V181.092H392.78Z" fill="white"/>
<path d="M411.176 187.371C414.081 187.371 416.435 188.289 418.236 190.126C420.037 191.933 420.938 194.553 420.938 197.986V212.576H417.016V198.573C417.016 196.104 416.42 194.222 415.229 192.927C414.038 191.602 412.41 190.939 410.348 190.939C408.256 190.939 406.585 191.617 405.335 192.972C404.115 194.327 403.505 196.299 403.505 198.889V212.576H399.539V187.822H403.505V191.346C404.29 190.081 405.35 189.102 406.687 188.41C408.052 187.717 409.549 187.371 411.176 187.371Z" fill="white"/>
<path d="M432.254 191.21V205.8C432.254 207.005 432.501 207.863 432.995 208.375C433.489 208.857 434.346 209.098 435.567 209.098H438.487V212.576H434.913C432.705 212.576 431.049 212.049 429.945 210.995C428.84 209.941 428.288 208.209 428.288 205.8V191.21H425.194V187.822H428.288V181.589H432.254V187.822H438.487V191.21H432.254Z" fill="white"/>
<path d="M465.084 199.251C465.084 200.034 465.04 200.862 464.953 201.735H445.864C446.009 204.174 446.808 206.086 448.261 207.472C449.742 208.827 451.529 209.504 453.621 209.504C455.336 209.504 456.759 209.098 457.892 208.285C459.055 207.442 459.868 206.327 460.333 204.942H464.604C463.965 207.321 462.687 209.263 460.769 210.769C458.851 212.245 456.469 212.982 453.621 212.982C451.355 212.982 449.321 212.455 447.52 211.401C445.747 210.347 444.353 208.857 443.336 206.93C442.319 204.972 441.81 202.714 441.81 200.154C441.81 197.594 442.304 195.351 443.292 193.424C444.28 191.496 445.66 190.021 447.433 188.997C449.234 187.943 451.297 187.416 453.621 187.416C455.888 187.416 457.892 187.928 459.636 188.952C461.379 189.976 462.716 191.391 463.645 193.198C464.604 194.974 465.084 196.992 465.084 199.251ZM460.987 198.392C460.987 196.826 460.653 195.486 459.984 194.372C459.316 193.228 458.401 192.37 457.239 191.797C456.106 191.195 454.842 190.894 453.447 190.894C451.442 190.894 449.728 191.557 448.304 192.882C446.91 194.207 446.111 196.043 445.907 198.392H460.987Z" fill="white"/>
<path d="M474.285 179.15V212.576H470.319V179.15H474.285Z" fill="white"/>
<path d="M485.01 179.15V212.576H481.044V179.15H485.01Z" fill="white"/>
<path d="M493.818 183.802C493.063 183.802 492.423 183.531 491.9 182.989C491.377 182.447 491.116 181.785 491.116 181.002C491.116 180.219 491.377 179.556 491.9 179.014C492.423 178.472 493.063 178.201 493.818 178.201C494.545 178.201 495.155 178.472 495.649 179.014C496.172 179.556 496.433 180.219 496.433 181.002C496.433 181.785 496.172 182.447 495.649 182.989C495.155 183.531 494.545 183.802 493.818 183.802ZM495.736 187.822V212.576H491.77V187.822H495.736Z" fill="white"/>
<path d="M512.345 187.416C514.408 187.416 516.209 187.883 517.749 188.816C519.318 189.75 520.48 190.924 521.236 192.34V187.822H525.246V213.118C525.246 215.376 524.781 217.379 523.851 219.126C522.921 220.902 521.585 222.288 519.841 223.281C518.127 224.275 516.122 224.772 513.827 224.772C510.689 224.772 508.074 224.004 505.982 222.468C503.89 220.932 502.655 218.84 502.277 216.19H506.2C506.636 217.695 507.536 218.9 508.902 219.803C510.268 220.737 511.909 221.203 513.827 221.203C516.006 221.203 517.778 220.496 519.144 219.08C520.539 217.665 521.236 215.678 521.236 213.118V207.923C520.451 209.369 519.289 210.573 517.749 211.537C516.209 212.501 514.408 212.982 512.345 212.982C510.224 212.982 508.292 212.44 506.548 211.356C504.834 210.272 503.483 208.751 502.495 206.794C501.507 204.837 501.013 202.608 501.013 200.109C501.013 197.579 501.507 195.366 502.495 193.469C503.483 191.541 504.834 190.051 506.548 188.997C508.292 187.943 510.224 187.416 512.345 187.416ZM521.236 200.154C521.236 198.287 520.873 196.661 520.146 195.276C519.42 193.89 518.432 192.836 517.183 192.114C515.962 191.361 514.611 190.984 513.129 190.984C511.648 190.984 510.297 191.346 509.076 192.068C507.856 192.791 506.883 193.845 506.156 195.23C505.43 196.616 505.067 198.242 505.067 200.109C505.067 202.006 505.43 203.662 506.156 205.078C506.883 206.463 507.856 207.532 509.076 208.285C510.297 209.007 511.648 209.369 513.129 209.369C514.611 209.369 515.962 209.007 517.183 208.285C518.432 207.532 519.42 206.463 520.146 205.078C520.873 203.662 521.236 202.021 521.236 200.154Z" fill="white"/>
<path d="M553.739 199.251C553.739 200.034 553.696 200.862 553.609 201.735H534.519C534.664 204.174 535.463 206.086 536.916 207.472C538.398 208.827 540.185 209.504 542.277 209.504C543.991 209.504 545.415 209.098 546.548 208.285C547.71 207.442 548.524 206.327 548.989 204.942H553.26C552.621 207.321 551.342 209.263 549.425 210.769C547.507 212.245 545.124 212.982 542.277 212.982C540.011 212.982 537.977 212.455 536.175 211.401C534.403 210.347 533.008 208.857 531.991 206.93C530.974 204.972 530.466 202.714 530.466 200.154C530.466 197.594 530.96 195.351 531.948 193.424C532.936 191.496 534.316 190.021 536.088 188.997C537.89 187.943 539.953 187.416 542.277 187.416C544.543 187.416 546.548 187.928 548.291 188.952C550.035 189.976 551.371 191.391 552.301 193.198C553.26 194.974 553.739 196.992 553.739 199.251ZM549.642 198.392C549.642 196.826 549.308 195.486 548.64 194.372C547.972 193.228 547.057 192.37 545.894 191.797C544.761 191.195 543.497 190.894 542.103 190.894C540.098 190.894 538.384 191.557 536.96 192.882C535.565 194.207 534.766 196.043 534.563 198.392H549.642Z" fill="white"/>
<path d="M570.611 187.371C573.517 187.371 575.87 188.289 577.671 190.126C579.473 191.933 580.374 194.553 580.374 197.986V212.576H576.451V198.573C576.451 196.104 575.855 194.222 574.664 192.927C573.473 191.602 571.846 190.939 569.783 190.939C567.691 190.939 566.02 191.617 564.771 192.972C563.551 194.327 562.94 196.299 562.94 198.889V212.576H558.974V187.822H562.94V191.346C563.725 190.081 564.785 189.102 566.122 188.41C567.488 187.717 568.984 187.371 570.611 187.371Z" fill="white"/>
<path d="M585.37 200.154C585.37 197.594 585.864 195.366 586.852 193.469C587.84 191.541 589.206 190.051 590.949 188.997C592.721 187.943 594.741 187.416 597.007 187.416C599.942 187.416 602.353 188.154 604.242 189.629C606.159 191.105 607.423 193.153 608.033 195.772H603.762C603.356 194.267 602.557 193.077 601.365 192.204C600.203 191.331 598.75 190.894 597.007 190.894C594.741 190.894 592.91 191.707 591.515 193.333C590.121 194.929 589.424 197.203 589.424 200.154C589.424 203.135 590.121 205.439 591.515 207.065C592.91 208.691 594.741 209.504 597.007 209.504C598.75 209.504 600.203 209.083 601.365 208.24C602.527 207.396 603.326 206.192 603.762 204.626H608.033C607.394 207.155 606.116 209.188 604.198 210.724C602.28 212.23 599.883 212.982 597.007 212.982C594.741 212.982 592.721 212.455 590.949 211.401C589.206 210.347 587.84 208.857 586.852 206.93C585.864 205.002 585.37 202.744 585.37 200.154Z" fill="white"/>
<path d="M635.117 199.251C635.117 200.034 635.073 200.862 634.986 201.735H615.897C616.042 204.174 616.841 206.086 618.294 207.472C619.776 208.827 621.563 209.504 623.655 209.504C625.369 209.504 626.793 209.098 627.926 208.285C629.088 207.442 629.901 206.327 630.366 204.942H634.637C633.998 207.321 632.72 209.263 630.802 210.769C628.885 212.245 626.502 212.982 623.655 212.982C621.388 212.982 619.354 212.455 617.553 211.401C615.781 210.347 614.386 208.857 613.369 206.93C612.352 204.972 611.844 202.714 611.844 200.154C611.844 197.594 612.337 195.351 613.325 193.424C614.313 191.496 615.693 190.021 617.466 188.997C619.267 187.943 621.33 187.416 623.655 187.416C625.921 187.416 627.926 187.928 629.669 188.952C631.412 189.976 632.749 191.391 633.679 193.198C634.637 194.974 635.117 196.992 635.117 199.251ZM631.02 198.392C631.02 196.826 630.686 195.486 630.018 194.372C629.349 193.228 628.434 192.37 627.272 191.797C626.139 191.195 624.875 190.894 623.48 190.894C621.475 190.894 619.761 191.557 618.337 192.882C616.943 194.207 616.144 196.043 615.94 198.392H631.02Z" fill="white"/>
</g>
<g id="Web_Applications">
<path d="M739.436 224.905L733.539 245.75H730.561L725.832 228.972L720.928 245.75L717.98 245.78L712.287 224.905H715.119L719.556 242.58L724.46 224.905H727.438L732.108 242.52L736.575 224.905H739.436Z" fill="white"/>
<path d="M756.939 236.927C756.939 237.446 756.91 237.994 756.851 238.572H744.065C744.162 240.187 744.698 241.453 745.671 242.37C746.663 243.267 747.86 243.716 749.261 243.716C750.409 243.716 751.363 243.447 752.122 242.909C752.901 242.35 753.445 241.613 753.757 240.696H756.618C756.189 242.271 755.333 243.557 754.049 244.553C752.764 245.53 751.168 246.019 749.261 246.019C747.743 246.019 746.381 245.67 745.174 244.972C743.987 244.274 743.053 243.287 742.372 242.011C741.691 240.716 741.35 239.22 741.35 237.526C741.35 235.831 741.681 234.346 742.343 233.07C743.004 231.794 743.929 230.817 745.116 230.139C746.323 229.441 747.704 229.092 749.261 229.092C750.779 229.092 752.122 229.431 753.29 230.109C754.457 230.787 755.353 231.724 755.975 232.92C756.618 234.096 756.939 235.432 756.939 236.927ZM754.195 236.359C754.195 235.322 753.971 234.435 753.523 233.698C753.076 232.94 752.463 232.372 751.684 231.993C750.925 231.594 750.079 231.395 749.144 231.395C747.802 231.395 746.653 231.833 745.7 232.711C744.766 233.588 744.23 234.804 744.094 236.359H754.195Z" fill="white"/>
<path d="M763.102 232.412C763.647 231.435 764.444 230.637 765.495 230.019C766.546 229.401 767.743 229.092 769.086 229.092C770.526 229.092 771.82 229.441 772.969 230.139C774.117 230.837 775.022 231.823 775.683 233.099C776.345 234.356 776.676 235.821 776.676 237.496C776.676 239.15 776.345 240.626 775.683 241.922C775.022 243.218 774.107 244.224 772.939 244.942C771.791 245.66 770.507 246.019 769.086 246.019C767.704 246.019 766.488 245.71 765.437 245.092C764.406 244.474 763.627 243.686 763.102 242.729V245.75H760.445V223.619H763.102V232.412ZM773.961 237.496C773.961 236.26 773.718 235.183 773.231 234.266C772.745 233.349 772.083 232.651 771.246 232.172C770.429 231.694 769.524 231.455 768.531 231.455C767.558 231.455 766.653 231.704 765.817 232.202C764.999 232.681 764.337 233.389 763.831 234.326C763.345 235.243 763.102 236.309 763.102 237.526C763.102 238.762 763.345 239.848 763.831 240.785C764.337 241.702 764.999 242.41 765.817 242.909C766.653 243.387 767.558 243.626 768.531 243.626C769.524 243.626 770.429 243.387 771.246 242.909C772.083 242.41 772.745 241.702 773.231 240.785C773.718 239.848 773.961 238.752 773.961 237.496Z" fill="white"/>
<path d="M799.982 241.114H791.108L789.473 245.75H786.671L794.027 225.025H797.092L804.419 245.75H801.617L799.982 241.114ZM799.223 238.901L795.545 228.374L791.867 238.901H799.223Z" fill="white"/>
<path d="M810.282 232.382C810.807 231.445 811.586 230.667 812.617 230.049C813.668 229.411 814.885 229.092 816.266 229.092C817.687 229.092 818.971 229.441 820.12 230.139C821.287 230.837 822.202 231.823 822.864 233.099C823.525 234.356 823.856 235.821 823.856 237.496C823.856 239.15 823.525 240.626 822.864 241.922C822.202 243.218 821.287 244.224 820.12 244.942C818.971 245.66 817.687 246.019 816.266 246.019C814.904 246.019 813.697 245.71 812.647 245.092C811.615 244.454 810.827 243.666 810.282 242.729V253.525H807.626V229.361H810.282V232.382ZM821.141 237.496C821.141 236.26 820.898 235.183 820.412 234.266C819.925 233.349 819.263 232.651 818.427 232.172C817.609 231.694 816.704 231.455 815.712 231.455C814.739 231.455 813.834 231.704 812.997 232.202C812.179 232.681 811.518 233.389 811.012 234.326C810.525 235.243 810.282 236.309 810.282 237.526C810.282 238.762 810.525 239.848 811.012 240.785C811.518 241.702 812.179 242.41 812.997 242.909C813.834 243.387 814.739 243.626 815.712 243.626C816.704 243.626 817.609 243.387 818.427 242.909C819.263 242.41 819.925 241.702 820.412 240.785C820.898 239.848 821.141 238.752 821.141 237.496Z" fill="white"/>
<path d="M830.009 232.382C830.535 231.445 831.313 230.667 832.345 230.049C833.396 229.411 834.612 229.092 835.994 229.092C837.414 229.092 838.699 229.441 839.847 230.139C841.015 230.837 841.929 231.823 842.591 233.099C843.253 234.356 843.584 235.821 843.584 237.496C843.584 239.15 843.253 240.626 842.591 241.922C841.929 243.218 841.015 244.224 839.847 244.942C838.699 245.66 837.414 246.019 835.994 246.019C834.631 246.019 833.425 245.71 832.374 245.092C831.343 244.454 830.554 243.666 830.009 242.729V253.525H827.353V229.361H830.009V232.382ZM840.869 237.496C840.869 236.26 840.626 235.183 840.139 234.266C839.652 233.349 838.991 232.651 838.154 232.172C837.337 231.694 836.432 231.455 835.439 231.455C834.466 231.455 833.561 231.704 832.724 232.202C831.907 232.681 831.245 233.389 830.739 234.326C830.253 235.243 830.009 236.309 830.009 237.526C830.009 238.762 830.253 239.848 830.739 240.785C831.245 241.702 831.907 242.41 832.724 242.909C833.561 243.387 834.466 243.626 835.439 243.626C836.432 243.626 837.337 243.387 838.154 242.909C838.991 242.41 839.652 241.702 840.139 240.785C840.626 239.848 840.869 238.752 840.869 237.496Z" fill="white"/>
<path d="M849.737 223.619V245.75H847.08V223.619H849.737Z" fill="white"/>
<path d="M855.636 226.7C855.13 226.7 854.702 226.52 854.352 226.161C854.002 225.802 853.826 225.364 853.826 224.845C853.826 224.327 854.002 223.888 854.352 223.53C854.702 223.171 855.13 222.991 855.636 222.991C856.123 222.991 856.532 223.171 856.862 223.53C857.213 223.888 857.388 224.327 857.388 224.845C857.388 225.364 857.213 225.802 856.862 226.161C856.532 226.52 856.123 226.7 855.636 226.7ZM856.921 229.361V245.75H854.264V229.361H856.921Z" fill="white"/>
<path d="M860.456 237.526C860.456 235.831 860.787 234.356 861.448 233.099C862.11 231.823 863.025 230.837 864.192 230.139C865.379 229.441 866.732 229.092 868.25 229.092C870.216 229.092 871.831 229.581 873.096 230.557C874.38 231.534 875.227 232.89 875.636 234.625H872.775C872.502 233.628 871.967 232.84 871.169 232.262C870.391 231.684 869.418 231.395 868.25 231.395C866.732 231.395 865.506 231.933 864.572 233.01C863.638 234.066 863.171 235.572 863.171 237.526C863.171 239.499 863.638 241.025 864.572 242.101C865.506 243.178 866.732 243.716 868.25 243.716C869.418 243.716 870.391 243.437 871.169 242.879C871.948 242.32 872.483 241.523 872.775 240.486H875.636C875.207 242.161 874.351 243.507 873.067 244.524C871.782 245.52 870.177 246.019 868.25 246.019C866.732 246.019 865.379 245.67 864.192 244.972C863.025 244.274 862.11 243.287 861.448 242.011C860.787 240.735 860.456 239.24 860.456 237.526Z" fill="white"/>
<path d="M878.188 237.496C878.188 235.821 878.518 234.356 879.18 233.099C879.842 231.823 880.747 230.837 881.895 230.139C883.063 229.441 884.357 229.092 885.777 229.092C887.179 229.092 888.395 229.401 889.426 230.019C890.458 230.637 891.227 231.415 891.733 232.352V229.361H894.418V245.75H891.733V242.699C891.207 243.656 890.419 244.454 889.368 245.092C888.337 245.71 887.13 246.019 885.748 246.019C884.328 246.019 883.043 245.66 881.895 244.942C880.747 244.224 879.842 243.218 879.18 241.922C878.518 240.626 878.188 239.15 878.188 237.496ZM891.733 237.526C891.733 236.289 891.489 235.213 891.003 234.296C890.516 233.379 889.855 232.681 889.018 232.202C888.2 231.704 887.295 231.455 886.303 231.455C885.31 231.455 884.405 231.694 883.588 232.172C882.771 232.651 882.119 233.349 881.632 234.266C881.146 235.183 880.902 236.26 880.902 237.496C880.902 238.752 881.146 239.848 881.632 240.785C882.119 241.702 882.771 242.41 883.588 242.909C884.405 243.387 885.31 243.626 886.303 243.626C887.295 243.626 888.2 243.387 889.018 242.909C889.855 242.41 890.516 241.702 891.003 240.785C891.489 239.848 891.733 238.762 891.733 237.526Z" fill="white"/>
<path d="M902.148 231.604V241.264C902.148 242.061 902.313 242.629 902.644 242.968C902.975 243.287 903.549 243.447 904.366 243.447H906.322V245.75H903.928C902.449 245.75 901.34 245.401 900.601 244.703C899.861 244.005 899.491 242.859 899.491 241.264V231.604H897.419V229.361H899.491V225.234H902.148V229.361H906.322V231.604H902.148Z" fill="white"/>
<path d="M910.913 226.7C910.407 226.7 909.979 226.52 909.628 226.161C909.278 225.802 909.103 225.364 909.103 224.845C909.103 224.327 909.278 223.888 909.628 223.53C909.979 223.171 910.407 222.991 910.913 222.991C911.399 222.991 911.808 223.171 912.139 223.53C912.489 223.888 912.664 224.327 912.664 224.845C912.664 225.364 912.489 225.802 912.139 226.161C911.808 226.52 911.399 226.7 910.913 226.7ZM912.197 229.361V245.75H909.541V229.361H912.197Z" fill="white"/>
<path d="M923.702 246.019C922.203 246.019 920.841 245.67 919.615 244.972C918.408 244.274 917.455 243.287 916.754 242.011C916.073 240.716 915.732 239.22 915.732 237.526C915.732 235.851 916.083 234.375 916.783 233.099C917.503 231.804 918.476 230.817 919.702 230.139C920.928 229.441 922.3 229.092 923.818 229.092C925.336 229.092 926.708 229.441 927.935 230.139C929.161 230.817 930.124 231.794 930.825 233.07C931.545 234.346 931.905 235.831 931.905 237.526C931.905 239.22 931.535 240.716 930.795 242.011C930.075 243.287 929.092 244.274 927.847 244.972C926.601 245.67 925.22 246.019 923.702 246.019ZM923.702 243.626C924.655 243.626 925.551 243.397 926.387 242.939C927.224 242.48 927.896 241.792 928.402 240.875C928.927 239.958 929.19 238.841 929.19 237.526C929.19 236.21 928.937 235.093 928.431 234.176C927.925 233.259 927.263 232.581 926.446 232.142C925.628 231.684 924.743 231.455 923.789 231.455C922.816 231.455 921.921 231.684 921.104 232.142C920.306 232.581 919.663 233.259 919.177 234.176C918.69 235.093 918.447 236.21 918.447 237.526C918.447 238.861 918.681 239.988 919.148 240.905C919.634 241.822 920.276 242.51 921.074 242.968C921.872 243.407 922.748 243.626 923.702 243.626Z" fill="white"/>
<path d="M943.192 229.062C945.138 229.062 946.714 229.67 947.921 230.886C949.127 232.083 949.731 233.817 949.731 236.09V245.75H947.103V236.479C947.103 234.844 946.704 233.598 945.907 232.741C945.109 231.863 944.019 231.425 942.637 231.425C941.236 231.425 940.117 231.873 939.28 232.771C938.463 233.668 938.054 234.974 938.054 236.688V245.75H935.397V229.361H938.054V231.694C938.579 230.857 939.29 230.209 940.185 229.75C941.1 229.291 942.102 229.062 943.192 229.062Z" fill="white"/>
<path d="M959.733 246.019C958.507 246.019 957.408 245.809 956.435 245.391C955.461 244.952 954.693 244.354 954.128 243.596C953.564 242.819 953.253 241.932 953.194 240.935H955.938C956.016 241.752 956.386 242.42 957.048 242.939C957.729 243.457 958.614 243.716 959.704 243.716C960.716 243.716 961.514 243.487 962.098 243.028C962.682 242.57 962.974 241.992 962.974 241.294C962.974 240.576 962.662 240.048 962.039 239.709C961.417 239.35 960.453 239.001 959.149 238.662C957.962 238.343 956.989 238.024 956.23 237.705C955.491 237.366 954.848 236.878 954.304 236.24C953.778 235.582 953.515 234.724 953.515 233.668C953.515 232.83 953.759 232.063 954.245 231.365C954.732 230.667 955.423 230.119 956.318 229.72C957.213 229.301 958.235 229.092 959.383 229.092C961.154 229.092 962.584 229.551 963.674 230.468C964.764 231.385 965.348 232.641 965.426 234.236H962.769C962.711 233.379 962.37 232.691 961.747 232.172C961.144 231.654 960.327 231.395 959.295 231.395C958.342 231.395 957.583 231.604 957.018 232.023C956.454 232.442 956.172 232.99 956.172 233.668C956.172 234.206 956.337 234.655 956.668 235.013C957.018 235.352 957.447 235.632 957.953 235.851C958.478 236.05 959.198 236.279 960.113 236.539C961.261 236.858 962.195 237.177 962.915 237.496C963.635 237.795 964.248 238.253 964.754 238.871C965.28 239.489 965.552 240.297 965.572 241.294C965.572 242.191 965.328 242.998 964.842 243.716C964.355 244.434 963.664 245.002 962.769 245.421C961.893 245.819 960.881 246.019 959.733 246.019Z" fill="white"/>
</g>
<g id="Apis">
<path d="M721.254 749.786H708.682L706.366 758.896H702.396L712.817 718.163H717.16L727.54 758.896H723.57L721.254 749.786ZM720.179 745.436L714.968 724.746L709.757 745.436H720.179Z" fill="white"/>
<path d="M751.353 729.919C751.353 733.328 750.526 736.169 748.872 738.441C747.245 740.675 744.75 741.792 741.387 741.792H735.845V758.896H732.082V717.928H741.387C744.64 717.928 747.107 719.045 748.789 721.278C750.499 723.512 751.353 726.392 751.353 729.919ZM741.387 737.383C743.482 737.383 745.026 736.737 746.018 735.444C747.011 734.151 747.507 732.309 747.507 729.919C747.507 724.864 745.467 722.336 741.387 722.336H735.845V737.383H741.387Z" fill="white"/>
<path d="M759.794 717.928V758.896H756.031V717.928H759.794Z" fill="white"/>
</g>
<g id="Databases">
<path d="M75.5198 279.557C77.9233 279.557 80 280.24 81.7499 281.607C83.5209 282.942 84.8702 284.864 85.7978 287.375C86.7466 289.886 87.2209 292.841 87.2209 296.242C87.2209 299.642 86.7466 302.598 85.7978 305.108C84.8702 307.587 83.5209 309.494 81.7499 310.829C80 312.132 77.9233 312.783 75.5198 312.783H68.6573V279.557H75.5198ZM75.5198 309.208C78.366 309.208 80.5376 308.08 82.0345 305.824C83.5314 303.535 84.2799 300.341 84.2799 296.242C84.2799 292.11 83.5209 288.885 82.0029 286.565C80.506 284.245 78.345 283.085 75.5198 283.085H71.5351V309.208H75.5198Z" fill="white"/>
<path d="M89.9416 299.626C89.9416 296.957 90.3001 294.621 91.0169 292.619C91.7337 290.585 92.7141 289.012 93.958 287.9C95.223 286.787 96.625 286.231 98.1641 286.231C99.682 286.231 101 286.724 102.117 287.709C103.235 288.694 104.067 289.933 104.615 291.427V286.66H107.525V312.783H104.615V307.921C104.046 309.446 103.192 310.718 102.054 311.735C100.936 312.72 99.6293 313.212 98.1324 313.212C96.5934 313.212 95.2019 312.64 93.958 311.496C92.7141 310.352 91.7337 308.747 91.0169 306.682C90.3001 304.616 89.9416 302.264 89.9416 299.626ZM104.615 299.674C104.615 297.704 104.352 295.988 103.825 294.526C103.298 293.064 102.581 291.951 101.674 291.189C100.789 290.394 99.8085 289.997 98.7333 289.997C97.6581 289.997 96.6777 290.378 95.7922 291.141C94.9067 291.904 94.2004 293.016 93.6734 294.478C93.1463 295.94 92.8827 297.656 92.8827 299.626C92.8827 301.629 93.1463 303.376 93.6734 304.87C94.2004 306.332 94.9067 307.46 95.7922 308.255C96.6777 309.017 97.6581 309.399 98.7333 309.399C99.8085 309.399 100.789 309.017 101.674 308.255C102.581 307.46 103.298 306.332 103.825 304.87C104.352 303.376 104.615 301.644 104.615 299.674Z" fill="white"/>
<path d="M115.899 290.235V305.633C115.899 306.904 116.078 307.81 116.436 308.35C116.795 308.859 117.417 309.113 118.302 309.113H120.421V312.783H117.828C116.225 312.783 115.024 312.227 114.222 311.115C113.421 310.003 113.021 308.175 113.021 305.633V290.235H110.775V286.66H113.021V280.082H115.899V286.66H120.421V290.235H115.899Z" fill="white"/>
<path d="M122.832 299.626C122.832 296.957 123.191 294.621 123.908 292.619C124.625 290.585 125.605 289.012 126.849 287.9C128.114 286.787 129.516 286.231 131.055 286.231C132.573 286.231 133.891 286.724 135.008 287.709C136.125 288.694 136.958 289.933 137.506 291.427V286.66H140.416V312.783H137.506V307.921C136.937 309.446 136.083 310.718 134.945 311.735C133.827 312.72 132.52 313.212 131.023 313.212C129.484 313.212 128.093 312.64 126.849 311.496C125.605 310.352 124.625 308.747 123.908 306.682C123.191 304.616 122.832 302.264 122.832 299.626ZM137.506 299.674C137.506 297.704 137.243 295.988 136.716 294.526C136.189 293.064 135.472 291.951 134.565 291.189C133.68 290.394 132.699 289.997 131.624 289.997C130.549 289.997 129.569 290.378 128.683 291.141C127.798 291.904 127.091 293.016 126.564 294.478C126.037 295.94 125.774 297.656 125.774 299.626C125.774 301.629 126.037 303.376 126.564 304.87C127.091 306.332 127.798 307.46 128.683 308.255C129.569 309.017 130.549 309.399 131.624 309.399C132.699 309.399 133.68 309.017 134.565 308.255C135.472 307.46 136.189 306.332 136.716 304.87C137.243 303.376 137.506 301.644 137.506 299.674Z" fill="white"/>
<path d="M148.157 291.522C148.747 289.965 149.612 288.694 150.75 287.709C151.889 286.724 153.185 286.231 154.64 286.231C156.2 286.231 157.602 286.787 158.846 287.9C160.09 289.012 161.07 290.585 161.787 292.619C162.504 294.621 162.862 296.957 162.862 299.626C162.862 302.264 162.504 304.616 161.787 306.682C161.07 308.747 160.079 310.352 158.814 311.496C157.57 312.64 156.179 313.212 154.64 313.212C153.143 313.212 151.825 312.72 150.687 311.735C149.569 310.749 148.726 309.494 148.157 307.969V312.783H145.279V277.507H148.157V291.522ZM159.921 299.626C159.921 297.656 159.658 295.94 159.131 294.478C158.604 293.016 157.887 291.904 156.98 291.141C156.095 290.378 155.114 289.997 154.039 289.997C152.985 289.997 152.005 290.394 151.098 291.189C150.213 291.951 149.496 293.08 148.948 294.573C148.42 296.035 148.157 297.735 148.157 299.674C148.157 301.644 148.42 303.376 148.948 304.87C149.496 306.332 150.213 307.46 151.098 308.255C152.005 309.017 152.985 309.399 154.039 309.399C155.114 309.399 156.095 309.017 156.98 308.255C157.887 307.46 158.604 306.332 159.131 304.87C159.658 303.376 159.921 301.629 159.921 299.626Z" fill="white"/>
<path d="M165.575 299.626C165.575 296.957 165.934 294.621 166.65 292.619C167.367 290.585 168.348 289.012 169.591 287.9C170.856 286.787 172.258 286.231 173.798 286.231C175.316 286.231 176.633 286.724 177.751 287.709C178.868 288.694 179.701 289.933 180.249 291.427V286.66H183.158V312.783H180.249V307.921C179.68 309.446 178.826 310.718 177.687 311.735C176.57 312.72 175.263 313.212 173.766 313.212C172.227 313.212 170.835 312.64 169.591 311.496C168.348 310.352 167.367 308.747 166.65 306.682C165.934 304.616 165.575 302.264 165.575 299.626ZM180.249 299.674C180.249 297.704 179.985 295.988 179.458 294.526C178.931 293.064 178.214 291.951 177.308 291.189C176.422 290.394 175.442 289.997 174.367 289.997C173.292 289.997 172.311 290.378 171.426 291.141C170.54 291.904 169.834 293.016 169.307 294.478C168.78 295.94 168.516 297.656 168.516 299.626C168.516 301.629 168.78 303.376 169.307 304.87C169.834 306.332 170.54 307.46 171.426 308.255C172.311 309.017 173.292 309.399 174.367 309.399C175.442 309.399 176.422 309.017 177.308 308.255C178.214 307.46 178.931 306.332 179.458 304.87C179.985 303.376 180.249 301.644 180.249 299.674Z" fill="white"/>
<path d="M194.157 313.212C192.829 313.212 191.637 312.879 190.583 312.211C189.529 311.512 188.696 310.559 188.085 309.351C187.474 308.112 187.136 306.697 187.073 305.108H190.046C190.13 306.411 190.531 307.476 191.247 308.302C191.985 309.129 192.945 309.542 194.125 309.542C195.222 309.542 196.086 309.176 196.718 308.445C197.351 307.714 197.667 306.793 197.667 305.681C197.667 304.536 197.33 303.694 196.655 303.154C195.981 302.582 194.937 302.026 193.524 301.486C192.238 300.977 191.184 300.469 190.362 299.96C189.561 299.42 188.865 298.641 188.275 297.624C187.705 296.575 187.421 295.209 187.421 293.525C187.421 292.19 187.684 290.966 188.211 289.854C188.739 288.742 189.487 287.868 190.457 287.232C191.427 286.565 192.533 286.231 193.777 286.231C195.696 286.231 197.246 286.962 198.426 288.424C199.607 289.886 200.239 291.888 200.324 294.43H197.446C197.383 293.064 197.014 291.967 196.339 291.141C195.685 290.315 194.8 289.902 193.683 289.902C192.649 289.902 191.827 290.235 191.216 290.903C190.604 291.57 190.299 292.444 190.299 293.525C190.299 294.383 190.478 295.098 190.836 295.67C191.216 296.21 191.68 296.655 192.228 297.005C192.797 297.322 193.577 297.688 194.568 298.101C195.812 298.609 196.824 299.118 197.604 299.626C198.384 300.103 199.048 300.834 199.596 301.819C200.166 302.804 200.461 304.092 200.482 305.681C200.482 307.111 200.218 308.398 199.691 309.542C199.164 310.686 198.416 311.592 197.446 312.259C196.497 312.895 195.401 313.212 194.157 313.212Z" fill="white"/>
<path d="M220.357 298.721C220.357 299.547 220.325 300.421 220.262 301.343H206.41C206.516 303.917 207.095 305.935 208.15 307.397C209.225 308.827 210.521 309.542 212.039 309.542C213.283 309.542 214.316 309.113 215.139 308.255C215.982 307.365 216.572 306.189 216.91 304.727H220.009C219.545 307.238 218.617 309.288 217.226 310.877C215.834 312.434 214.106 313.212 212.039 313.212C210.395 313.212 208.919 312.656 207.612 311.544C206.326 310.432 205.314 308.859 204.576 306.825C203.838 304.759 203.469 302.375 203.469 299.674C203.469 296.973 203.828 294.605 204.544 292.571C205.261 290.537 206.263 288.98 207.549 287.9C208.856 286.787 210.353 286.231 212.039 286.231C213.684 286.231 215.139 286.771 216.404 287.852C217.669 288.932 218.638 290.426 219.313 292.333C220.009 294.208 220.357 296.337 220.357 298.721ZM217.384 297.815C217.384 296.162 217.141 294.748 216.657 293.572C216.172 292.365 215.508 291.459 214.664 290.855C213.842 290.219 212.925 289.902 211.913 289.902C210.458 289.902 209.214 290.601 208.181 291.999C207.169 293.397 206.589 295.336 206.442 297.815H217.384Z" fill="white"/>
<path d="M230.291 313.212C228.962 313.212 227.771 312.879 226.717 312.211C225.663 311.512 224.83 310.559 224.219 309.351C223.607 308.112 223.27 306.697 223.207 305.108H226.179C226.264 306.411 226.664 307.476 227.381 308.302C228.119 309.129 229.078 309.542 230.259 309.542C231.355 309.542 232.22 309.176 232.852 308.445C233.485 307.714 233.801 306.793 233.801 305.681C233.801 304.536 233.463 303.694 232.789 303.154C232.114 302.582 231.071 302.026 229.658 301.486C228.372 300.977 227.318 300.469 226.496 299.96C225.694 299.42 224.999 298.641 224.408 297.624C223.839 296.575 223.554 295.209 223.554 293.525C223.554 292.19 223.818 290.966 224.345 289.854C224.872 288.742 225.621 287.868 226.59 287.232C227.56 286.565 228.667 286.231 229.911 286.231C231.83 286.231 233.379 286.962 234.56 288.424C235.74 289.886 236.373 291.888 236.457 294.43H233.579C233.516 293.064 233.147 291.967 232.473 291.141C231.819 290.315 230.934 289.902 229.816 289.902C228.783 289.902 227.961 290.235 227.349 290.903C226.738 291.57 226.432 292.444 226.432 293.525C226.432 294.383 226.612 295.098 226.97 295.67C227.349 296.21 227.813 296.655 228.361 297.005C228.931 297.322 229.711 297.688 230.702 298.101C231.946 298.609 232.958 299.118 233.738 299.626C234.518 300.103 235.182 300.834 235.73 301.819C236.299 302.804 236.594 304.092 236.615 305.681C236.615 307.111 236.352 308.398 235.825 309.542C235.298 310.686 234.549 311.592 233.579 312.259C232.631 312.895 231.534 313.212 230.291 313.212Z" fill="white"/>
</g>
<g id="Artificial_Intelligence">
<path d="M311.818 354.409H297.028L294.303 363.85H289.632L301.893 321.642H307.002L319.214 363.85H314.543L311.818 354.409ZM310.553 349.902L304.423 328.464L298.293 349.902H310.553Z" fill="white"/>
<path d="M328.984 335.894C329.763 333.986 330.866 332.504 332.293 331.448C333.752 330.392 335.52 329.864 337.596 329.864V335.59H336.428C331.466 335.59 328.984 338.96 328.984 345.7V363.85H324.557V330.473H328.984V335.894Z" fill="white"/>
<path d="M348.107 335.041V354.714C348.107 356.338 348.383 357.495 348.935 358.186C349.486 358.835 350.443 359.16 351.805 359.16H355.065V363.85H351.075C348.61 363.85 346.761 363.139 345.529 361.718C344.296 360.297 343.68 357.962 343.68 354.714V335.041H340.226V330.473H343.68V322.068H348.107V330.473H355.065V335.041H348.107Z" fill="white"/>
<path d="M362.716 325.053C361.873 325.053 361.159 324.687 360.575 323.956C359.991 323.226 359.699 322.332 359.699 321.277C359.699 320.221 359.991 319.328 360.575 318.597C361.159 317.866 361.873 317.5 362.716 317.5C363.527 317.5 364.208 317.866 364.759 318.597C365.343 319.328 365.635 320.221 365.635 321.277C365.635 322.332 365.343 323.226 364.759 323.956C364.208 324.687 363.527 325.053 362.716 325.053ZM364.857 330.473V363.85H360.429V330.473H364.857Z" fill="white"/>
<path d="M383.252 335.041H377.657V363.85H373.23V335.041H369.775V330.473H373.23V328.098C373.23 324.363 373.992 321.642 375.516 319.937C377.073 318.191 379.555 317.318 382.96 317.318V321.947C381.014 321.947 379.636 322.434 378.825 323.408C378.046 324.342 377.657 325.905 377.657 328.098V330.473H383.252V335.041Z" fill="white"/>
<path d="M390.701 325.053C389.858 325.053 389.144 324.687 388.56 323.956C387.977 323.226 387.685 322.332 387.685 321.277C387.685 320.221 387.977 319.328 388.56 318.597C389.144 317.866 389.858 317.5 390.701 317.5C391.512 317.5 392.193 317.866 392.745 318.597C393.328 319.328 393.62 320.221 393.62 321.277C393.62 322.332 393.328 323.226 392.745 323.956C392.193 324.687 391.512 325.053 390.701 325.053ZM392.842 330.473V363.85H388.414V330.473H392.842Z" fill="white"/>
<path d="M398.733 347.101C398.733 343.649 399.285 340.645 400.388 338.087C401.49 335.488 403.015 333.478 404.961 332.057C406.94 330.636 409.194 329.925 411.724 329.925C415 329.925 417.692 330.92 419.8 332.91C421.941 334.899 423.352 337.66 424.033 341.193H419.265C418.811 339.163 417.919 337.559 416.589 336.381C415.292 335.204 413.67 334.615 411.724 334.615C409.194 334.615 407.15 335.711 405.594 337.904C404.037 340.056 403.258 343.122 403.258 347.101C403.258 351.121 404.037 354.227 405.594 356.419C407.15 358.612 409.194 359.708 411.724 359.708C413.67 359.708 415.292 359.14 416.589 358.003C417.887 356.866 418.779 355.242 419.265 353.13H424.033C423.32 356.541 421.892 359.282 419.752 361.353C417.611 363.383 414.935 364.398 411.724 364.398C409.194 364.398 406.94 363.687 404.961 362.266C403.015 360.845 401.49 358.835 400.388 356.237C399.285 353.638 398.733 350.593 398.733 347.101Z" fill="white"/>
<path d="M432.227 325.053C431.384 325.053 430.671 324.687 430.087 323.956C429.503 323.226 429.211 322.332 429.211 321.277C429.211 320.221 429.503 319.328 430.087 318.597C430.671 317.866 431.384 317.5 432.227 317.5C433.038 317.5 433.719 317.866 434.271 318.597C434.855 319.328 435.147 320.221 435.147 321.277C435.147 322.332 434.855 323.226 434.271 323.956C433.719 324.687 433.038 325.053 432.227 325.053ZM434.368 330.473V363.85H429.941V330.473H434.368Z" fill="white"/>
<path d="M440.26 347.04C440.26 343.629 440.811 340.645 441.914 338.087C443.017 335.488 444.525 333.478 446.439 332.057C448.385 330.636 450.542 329.925 452.91 329.925C455.245 329.925 457.272 330.555 458.991 331.813C460.71 333.072 461.992 334.656 462.835 336.564V330.473H467.311V363.85H462.835V357.637C461.959 359.586 460.646 361.211 458.894 362.51C457.175 363.769 455.164 364.398 452.861 364.398C450.493 364.398 448.352 363.667 446.439 362.205C444.525 360.744 443.017 358.693 441.914 356.054C440.811 353.415 440.26 350.41 440.26 347.04ZM462.835 347.101C462.835 344.583 462.429 342.391 461.619 340.523C460.808 338.655 459.705 337.234 458.31 336.259C456.948 335.244 455.44 334.737 453.785 334.737C452.131 334.737 450.623 335.224 449.261 336.199C447.898 337.173 446.812 338.594 446.001 340.462C445.19 342.33 444.785 344.522 444.785 347.04C444.785 349.598 445.19 351.831 446.001 353.739C446.812 355.607 447.898 357.049 449.261 358.064C450.623 359.038 452.131 359.526 453.785 359.526C455.44 359.526 456.948 359.038 458.31 358.064C459.705 357.049 460.808 355.607 461.619 353.739C462.429 351.831 462.835 349.618 462.835 347.101Z" fill="white"/>
<path d="M479.22 318.779V363.85H474.793V318.779H479.22Z" fill="white"/>
<path d="M504.165 321.398V363.85H499.737V321.398H504.165Z" fill="white"/>
<path d="M524.701 329.864C527.945 329.864 530.572 331.103 532.583 333.58C534.594 336.016 535.599 339.548 535.599 344.177V363.85H531.221V344.969C531.221 341.64 530.556 339.102 529.226 337.356C527.896 335.569 526.079 334.676 523.777 334.676C521.441 334.676 519.576 335.59 518.181 337.417C516.819 339.244 516.138 341.903 516.138 345.395V363.85H511.711V330.473H516.138V335.224C517.014 333.519 518.198 332.199 519.69 331.265C521.214 330.331 522.885 329.864 524.701 329.864Z" fill="white"/>
<path d="M548.232 335.041V354.714C548.232 356.338 548.508 357.495 549.059 358.186C549.611 358.835 550.567 359.16 551.93 359.16H555.189V363.85H551.2C548.735 363.85 546.886 363.139 545.653 361.718C544.421 360.297 543.805 357.962 543.805 354.714V335.041H540.35V330.473H543.805V322.068H548.232V330.473H555.189V335.041H548.232Z" fill="white"/>
<path d="M584.881 345.883C584.881 346.938 584.832 348.055 584.735 349.232H563.424C563.587 352.521 564.479 355.1 566.1 356.968C567.755 358.795 569.749 359.708 572.085 359.708C573.998 359.708 575.588 359.16 576.853 358.064C578.15 356.927 579.058 355.425 579.577 353.557H584.345C583.632 356.764 582.205 359.383 580.064 361.414C577.923 363.403 575.263 364.398 572.085 364.398C569.555 364.398 567.284 363.687 565.273 362.266C563.295 360.845 561.738 358.835 560.603 356.237C559.467 353.597 558.9 350.552 558.9 347.101C558.9 343.649 559.451 340.624 560.554 338.026C561.657 335.427 563.197 333.438 565.176 332.057C567.187 330.636 569.49 329.925 572.085 329.925C574.615 329.925 576.853 330.616 578.799 331.996C580.745 333.377 582.237 335.285 583.275 337.721C584.345 340.117 584.881 342.837 584.881 345.883ZM580.307 344.725C580.307 342.614 579.934 340.807 579.188 339.305C578.442 337.762 577.42 336.605 576.123 335.833C574.858 335.021 573.447 334.615 571.89 334.615C569.652 334.615 567.738 335.508 566.149 337.295C564.592 339.081 563.7 341.558 563.473 344.725H580.307Z" fill="white"/>
<path d="M595.152 318.779V363.85H590.725V318.779H595.152Z" fill="white"/>
<path d="M607.125 318.779V363.85H602.698V318.779H607.125Z" fill="white"/>
<path d="M616.958 325.053C616.114 325.053 615.401 324.687 614.817 323.956C614.233 323.226 613.941 322.332 613.941 321.277C613.941 320.221 614.233 319.328 614.817 318.597C615.401 317.866 616.114 317.5 616.958 317.5C617.769 317.5 618.45 317.866 619.001 318.597C619.585 319.328 619.877 320.221 619.877 321.277C619.877 322.332 619.585 323.226 619.001 323.956C618.45 324.687 617.769 325.053 616.958 325.053ZM619.099 330.473V363.85H614.671V330.473H619.099Z" fill="white"/>
<path d="M637.64 329.925C639.943 329.925 641.954 330.555 643.673 331.813C645.425 333.072 646.722 334.656 647.565 336.564V330.473H652.041V364.581C652.041 367.626 651.522 370.326 650.485 372.681C649.447 375.077 647.955 376.945 646.008 378.285C644.095 379.625 641.857 380.295 639.294 380.295C635.791 380.295 632.872 379.259 630.537 377.188C628.201 375.117 626.823 372.296 626.401 368.722H630.78C631.266 370.753 632.272 372.377 633.796 373.595C635.321 374.854 637.154 375.483 639.294 375.483C641.727 375.483 643.705 374.529 645.23 372.62C646.787 370.712 647.565 368.032 647.565 364.581V357.577C646.69 359.526 645.392 361.15 643.673 362.449C641.954 363.748 639.943 364.398 637.64 364.398C635.272 364.398 633.115 363.667 631.169 362.205C629.255 360.744 627.747 358.693 626.644 356.054C625.542 353.415 624.99 350.41 624.99 347.04C624.99 343.629 625.542 340.645 626.644 338.087C627.747 335.488 629.255 333.478 631.169 332.057C633.115 330.636 635.272 329.925 637.64 329.925ZM647.565 347.101C647.565 344.583 647.16 342.391 646.349 340.523C645.538 338.655 644.435 337.234 643.041 336.259C641.678 335.244 640.17 334.737 638.516 334.737C636.862 334.737 635.353 335.224 633.991 336.199C632.629 337.173 631.542 338.594 630.731 340.462C629.92 342.33 629.515 344.522 629.515 347.04C629.515 349.598 629.92 351.831 630.731 353.739C631.542 355.607 632.629 357.049 633.991 358.064C635.353 359.038 636.862 359.526 638.516 359.526C640.17 359.526 641.678 359.038 643.041 358.064C644.435 357.049 645.538 355.607 646.349 353.739C647.16 351.831 647.565 349.618 647.565 347.101Z" fill="white"/>
<path d="M683.85 345.883C683.85 346.938 683.801 348.055 683.704 349.232H662.394C662.556 352.521 663.448 355.1 665.07 356.968C666.724 358.795 668.719 359.708 671.054 359.708C672.968 359.708 674.557 359.16 675.822 358.064C677.12 356.927 678.028 355.425 678.547 353.557H683.315C682.601 356.764 681.174 359.383 679.033 361.414C676.893 363.403 674.233 364.398 671.054 364.398C668.524 364.398 666.254 363.687 664.243 362.266C662.264 360.845 660.707 358.835 659.572 356.237C658.437 353.597 657.869 350.552 657.869 347.101C657.869 343.649 658.421 340.624 659.523 338.026C660.626 335.427 662.167 333.438 664.145 332.057C666.156 330.636 668.459 329.925 671.054 329.925C673.584 329.925 675.822 330.616 677.768 331.996C679.714 333.377 681.206 335.285 682.244 337.721C683.315 340.117 683.85 342.837 683.85 345.883ZM679.277 344.725C679.277 342.614 678.904 340.807 678.158 339.305C677.412 337.762 676.39 336.605 675.092 335.833C673.827 335.021 672.416 334.615 670.86 334.615C668.622 334.615 666.708 335.508 665.118 337.295C663.562 339.081 662.67 341.558 662.443 344.725H679.277Z" fill="white"/>
<path d="M702.685 329.864C705.928 329.864 708.555 331.103 710.566 333.58C712.577 336.016 713.583 339.548 713.583 344.177V363.85H709.204V344.969C709.204 341.64 708.539 339.102 707.209 337.356C705.879 335.569 704.063 334.676 701.76 334.676C699.425 334.676 697.56 335.59 696.165 337.417C694.803 339.244 694.122 341.903 694.122 345.395V363.85H689.694V330.473H694.122V335.224C694.997 333.519 696.181 332.199 697.673 331.265C699.198 330.331 700.868 329.864 702.685 329.864Z" fill="white"/>
<path d="M719.161 347.101C719.161 343.649 719.712 340.645 720.815 338.087C721.918 335.488 723.442 333.478 725.388 332.057C727.367 330.636 729.621 329.925 732.151 329.925C735.427 329.925 738.119 330.92 740.228 332.91C742.368 334.899 743.779 337.66 744.461 341.193H739.693C739.238 339.163 738.346 337.559 737.017 336.381C735.719 335.204 734.097 334.615 732.151 334.615C729.621 334.615 727.578 335.711 726.021 337.904C724.464 340.056 723.686 343.122 723.686 347.101C723.686 351.121 724.464 354.227 726.021 356.419C727.578 358.612 729.621 359.708 732.151 359.708C734.097 359.708 735.719 359.14 737.017 358.003C738.314 356.866 739.206 355.242 739.693 353.13H744.461C743.747 356.541 742.32 359.282 740.179 361.353C738.038 363.383 735.362 364.398 732.151 364.398C729.621 364.398 727.367 363.687 725.388 362.266C723.442 360.845 721.918 358.835 720.815 356.237C719.712 353.638 719.161 350.593 719.161 347.101Z" fill="white"/>
<path d="M774.695 345.883C774.695 346.938 774.646 348.055 774.549 349.232H753.239C753.401 352.521 754.293 355.1 755.915 356.968C757.569 358.795 759.564 359.708 761.899 359.708C763.813 359.708 765.402 359.16 766.667 358.064C767.964 356.927 768.873 355.425 769.392 353.557H774.16C773.446 356.764 772.019 359.383 769.878 361.414C767.737 363.403 765.078 364.398 761.899 364.398C759.369 364.398 757.098 363.687 755.087 362.266C753.109 360.845 751.552 358.835 750.417 356.237C749.282 353.597 748.714 350.552 748.714 347.101C748.714 343.649 749.265 340.624 750.368 338.026C751.471 335.427 753.012 333.438 754.99 332.057C757.001 330.636 759.304 329.925 761.899 329.925C764.429 329.925 766.667 330.616 768.613 331.996C770.559 333.377 772.051 335.285 773.089 337.721C774.16 340.117 774.695 342.837 774.695 345.883ZM770.121 344.725C770.121 342.614 769.748 340.807 769.002 339.305C768.256 337.762 767.235 336.605 765.937 335.833C764.672 335.021 763.261 334.615 761.704 334.615C759.466 334.615 757.553 335.508 755.963 337.295C754.406 339.081 753.514 341.558 753.287 344.725H770.121Z" fill="white"/>
</g>
<g id="Deep_Learning">
<path d="M600.339 567.404C604.037 567.404 607.232 568.277 609.924 570.024C612.648 571.73 614.724 574.188 616.151 577.398C617.611 580.607 618.341 584.385 618.341 588.732C618.341 593.079 617.611 596.857 616.151 600.067C614.724 603.235 612.648 605.673 609.924 607.379C607.232 609.045 604.037 609.878 600.339 609.878H589.781V567.404H600.339ZM600.339 605.307C604.718 605.307 608.059 603.865 610.362 600.981C612.665 598.056 613.816 593.973 613.816 588.732C613.816 583.451 612.648 579.327 610.313 576.362C608.01 573.396 604.685 571.913 600.339 571.913H594.209V605.307H600.339Z" fill="white"/>
<path d="M648.507 591.901C648.507 592.957 648.459 594.074 648.361 595.253H627.051C627.213 598.543 628.105 601.123 629.727 602.992C631.381 604.82 633.376 605.734 635.711 605.734C637.625 605.734 639.214 605.185 640.479 604.089C641.777 602.951 642.685 601.448 643.204 599.579H647.972C647.259 602.789 645.831 605.409 643.691 607.44C641.55 609.431 638.89 610.426 635.711 610.426C633.181 610.426 630.911 609.715 628.9 608.293C626.921 606.871 625.365 604.86 624.229 602.26C623.094 599.62 622.526 596.573 622.526 593.12C622.526 589.667 623.078 586.64 624.181 584.04C625.283 581.44 626.824 579.449 628.803 578.068C630.814 576.646 633.117 575.935 635.711 575.935C638.241 575.935 640.479 576.626 642.426 578.007C644.372 579.388 645.864 581.298 646.902 583.735C647.972 586.132 648.507 588.854 648.507 591.901ZM643.934 590.743C643.934 588.631 643.561 586.823 642.815 585.32C642.069 583.776 641.047 582.618 639.75 581.846C638.485 581.034 637.074 580.627 635.517 580.627C633.279 580.627 631.365 581.521 629.776 583.309C628.219 585.096 627.327 587.574 627.1 590.743H643.934Z" fill="white"/>
<path d="M678.678 591.901C678.678 592.957 678.629 594.074 678.532 595.253H657.222C657.384 598.543 658.276 601.123 659.898 602.992C661.552 604.82 663.547 605.734 665.882 605.734C667.796 605.734 669.385 605.185 670.65 604.089C671.948 602.951 672.856 601.448 673.375 599.579H678.143C677.429 602.789 676.002 605.409 673.861 607.44C671.721 609.431 669.061 610.426 665.882 610.426C663.352 610.426 661.082 609.715 659.071 608.293C657.092 606.871 655.535 604.86 654.4 602.26C653.265 599.62 652.697 596.573 652.697 593.12C652.697 589.667 653.249 586.64 654.351 584.04C655.454 581.44 656.995 579.449 658.973 578.068C660.984 576.646 663.287 575.935 665.882 575.935C668.412 575.935 670.65 576.626 672.596 578.007C674.542 579.388 676.035 581.298 677.072 583.735C678.143 586.132 678.678 588.854 678.678 591.901ZM674.105 590.743C674.105 588.631 673.732 586.823 672.986 585.32C672.24 583.776 671.218 582.618 669.92 581.846C668.655 581.034 667.244 580.627 665.688 580.627C663.45 580.627 661.536 581.521 659.946 583.309C658.39 585.096 657.498 587.574 657.271 590.743H674.105Z" fill="white"/>
<path d="M688.95 582.638C689.825 580.729 691.123 579.145 692.842 577.885C694.593 576.585 696.621 575.935 698.923 575.935C701.291 575.935 703.432 576.646 705.346 578.068C707.292 579.49 708.816 581.501 709.919 584.101C711.022 586.66 711.573 589.646 711.573 593.059C711.573 596.431 711.022 599.437 709.919 602.078C708.816 604.718 707.292 606.77 705.346 608.232C703.432 609.695 701.291 610.426 698.923 610.426C696.653 610.426 694.642 609.796 692.89 608.537C691.171 607.237 689.858 605.632 688.95 603.723V625.722H684.522V576.484H688.95V582.638ZM707.049 593.059C707.049 590.54 706.643 588.346 705.832 586.477C705.021 584.609 703.919 583.187 702.524 582.212C701.162 581.237 699.653 580.749 697.999 580.749C696.377 580.749 694.869 581.257 693.474 582.273C692.112 583.248 691.009 584.69 690.166 586.599C689.355 588.468 688.95 590.642 688.95 593.12C688.95 595.638 689.355 597.853 690.166 599.762C691.009 601.631 692.112 603.073 693.474 604.089C694.869 605.064 696.377 605.551 697.999 605.551C699.653 605.551 701.162 605.064 702.524 604.089C703.919 603.073 705.021 601.631 705.832 599.762C706.643 597.853 707.049 595.618 707.049 593.059Z" fill="white"/>
<path d="M734.8 605.368H746.671V609.878H730.372V567.404H734.8V605.368Z" fill="white"/>
<path d="M775.699 591.901C775.699 592.957 775.651 594.074 775.554 595.253H754.243C754.406 598.543 755.298 601.123 756.919 602.992C758.574 604.82 760.568 605.734 762.904 605.734C764.817 605.734 766.407 605.185 767.672 604.089C768.969 602.951 769.877 601.448 770.396 599.579H775.164C774.451 602.789 773.024 605.409 770.883 607.44C768.742 609.431 766.082 610.426 762.904 610.426C760.374 610.426 758.103 609.715 756.092 608.293C754.114 606.871 752.557 604.86 751.421 602.26C750.286 599.62 749.719 596.573 749.719 593.12C749.719 589.667 750.27 586.64 751.373 584.04C752.476 581.44 754.016 579.449 755.995 578.068C758.006 576.646 760.309 575.935 762.904 575.935C765.434 575.935 767.672 576.626 769.618 578.007C771.564 579.388 773.056 581.298 774.094 583.735C775.164 586.132 775.699 588.854 775.699 591.901ZM771.126 590.743C771.126 588.631 770.753 586.823 770.007 585.32C769.261 583.776 768.239 582.618 766.942 581.846C765.677 581.034 764.266 580.627 762.709 580.627C760.471 580.627 758.557 581.521 756.968 583.309C755.411 585.096 754.519 587.574 754.292 590.743H771.126Z" fill="white"/>
<path d="M779.889 593.059C779.889 589.646 780.441 586.66 781.544 584.101C782.646 581.501 784.155 579.49 786.068 578.068C788.014 576.646 790.171 575.935 792.539 575.935C794.875 575.935 796.902 576.565 798.621 577.824C800.34 579.084 801.621 580.668 802.464 582.577V576.484H806.941V609.878H802.464V603.662C801.589 605.612 800.275 607.237 798.524 608.537C796.804 609.796 794.793 610.426 792.491 610.426C790.123 610.426 787.982 609.695 786.068 608.232C784.155 606.77 782.646 604.718 781.544 602.078C780.441 599.437 779.889 596.431 779.889 593.059ZM802.464 593.12C802.464 590.601 802.059 588.407 801.248 586.538C800.437 584.67 799.334 583.248 797.94 582.273C796.577 581.257 795.069 580.749 793.415 580.749C791.761 580.749 790.253 581.237 788.89 582.212C787.528 583.187 786.441 584.609 785.63 586.477C784.82 588.346 784.414 590.54 784.414 593.059C784.414 595.618 784.82 597.853 785.63 599.762C786.441 601.631 787.528 603.073 788.89 604.089C790.253 605.064 791.761 605.551 793.415 605.551C795.069 605.551 796.577 605.064 797.94 604.089C799.334 603.073 800.437 601.631 801.248 599.762C802.059 597.853 802.464 595.638 802.464 593.12Z" fill="white"/>
<path d="M818.85 581.907C819.628 579.998 820.731 578.515 822.158 577.459C823.618 576.402 825.386 575.874 827.462 575.874V581.602H826.294C821.331 581.602 818.85 584.974 818.85 591.718V609.878H814.423V576.484H818.85V581.907Z" fill="white"/>
<path d="M845.563 575.874C848.806 575.874 851.434 577.113 853.445 579.591C855.456 582.029 856.461 585.563 856.461 590.195V609.878H852.082V590.987C852.082 587.656 851.418 585.116 850.088 583.37C848.758 581.582 846.941 580.688 844.639 580.688C842.303 580.688 840.438 581.602 839.043 583.431C837.681 585.259 837 587.92 837 591.413V609.878H832.572V576.484H837V581.237C837.876 579.53 839.06 578.21 840.552 577.276C842.076 576.341 843.747 575.874 845.563 575.874Z" fill="white"/>
<path d="M865.98 571.06C865.137 571.06 864.423 570.694 863.839 569.963C863.256 569.232 862.964 568.338 862.964 567.282C862.964 566.226 863.256 565.332 863.839 564.601C864.423 563.869 865.137 563.504 865.98 563.504C866.791 563.504 867.472 563.869 868.024 564.601C868.607 565.332 868.899 566.226 868.899 567.282C868.899 568.338 868.607 569.232 868.024 569.963C867.472 570.694 866.791 571.06 865.98 571.06ZM868.121 576.484V609.878H863.693V576.484H868.121Z" fill="white"/>
<path d="M888.657 575.874C891.901 575.874 894.528 577.113 896.539 579.591C898.55 582.029 899.555 585.563 899.555 590.195V609.878H895.177V590.987C895.177 587.656 894.512 585.116 893.182 583.37C891.852 581.582 890.036 580.688 887.733 580.688C885.397 580.688 883.532 581.602 882.138 583.431C880.775 585.259 880.094 587.92 880.094 591.413V609.878H875.667V576.484H880.094V581.237C880.97 579.53 882.154 578.21 883.646 577.276C885.17 576.341 886.841 575.874 888.657 575.874Z" fill="white"/>
<path d="M917.783 575.935C920.086 575.935 922.097 576.565 923.816 577.824C925.568 579.084 926.865 580.668 927.709 582.577V576.484H932.185V610.609C932.185 613.656 931.666 616.357 930.628 618.714C929.59 621.111 928.098 622.979 926.152 624.32C924.238 625.661 922 626.331 919.438 626.331C915.935 626.331 913.015 625.295 910.68 623.223C908.345 621.151 906.966 618.328 906.544 614.753H910.923C911.41 616.784 912.415 618.409 913.94 619.628C915.464 620.887 917.297 621.517 919.438 621.517C921.87 621.517 923.849 620.562 925.373 618.653C926.93 616.743 927.709 614.062 927.709 610.609V603.601C926.833 605.551 925.535 607.176 923.816 608.476C922.097 609.776 920.086 610.426 917.783 610.426C915.416 610.426 913.259 609.695 911.312 608.232C909.399 606.77 907.891 604.718 906.788 602.078C905.685 599.437 905.134 596.431 905.134 593.059C905.134 589.646 905.685 586.66 906.788 584.101C907.891 581.501 909.399 579.49 911.312 578.068C913.259 576.646 915.416 575.935 917.783 575.935ZM927.709 593.12C927.709 590.601 927.303 588.407 926.492 586.538C925.681 584.67 924.579 583.248 923.184 582.273C921.822 581.257 920.313 580.749 918.659 580.749C917.005 580.749 915.497 581.237 914.134 582.212C912.772 583.187 911.686 584.609 910.875 586.477C910.064 588.346 909.658 590.54 909.658 593.059C909.658 595.618 910.064 597.853 910.875 599.762C911.686 601.631 912.772 603.073 914.134 604.089C915.497 605.064 917.005 605.551 918.659 605.551C920.313 605.551 921.822 605.064 923.184 604.089C924.579 603.073 925.681 601.631 926.492 599.762C927.303 597.853 927.709 595.638 927.709 593.12Z" fill="white"/>
</g>
</g>
</svg>
