<svg width="100" height="100" viewBox="0 0 100 100" fill="none" xmlns="http://www.w3.org/2000/svg">
<g id="clarity:home-line">
<path id="Vector" d="M93.6389 48.0278L51.9722 6.3611C51.4518 5.84374 50.7477 5.55334 50.0139 5.55334C49.28 5.55334 48.576 5.84374 48.0555 6.3611L6.38888 48.0278C5.93381 48.5592 5.69602 49.2427 5.72302 49.9418C5.75002 50.6409 6.03983 51.3041 6.53454 51.7988C7.02925 52.2935 7.69241 52.5833 8.39151 52.6103C9.09061 52.6373 9.77416 52.3995 10.3056 51.9444L50 12.25L89.6944 51.9722C90.2258 52.4273 90.9094 52.6651 91.6085 52.6381C92.3076 52.6111 92.9707 52.3213 93.4654 51.8266C93.9602 51.3319 94.25 50.6687 94.277 49.9696C94.304 49.2705 94.0662 48.5869 93.6111 48.0555L93.6389 48.0278Z" fill="black"/>
<path id="Vector_2" d="M77.7779 88.8889H63.889V61.1111H36.1112V88.8889H22.2223V50L16.6667 55.5555V88.8889C16.6667 90.3623 17.2521 91.7754 18.2939 92.8172C19.3358 93.8591 20.7489 94.4444 22.2223 94.4444H41.6667V66.6666H58.3334V94.4444H77.7779C79.2513 94.4444 80.6644 93.8591 81.7062 92.8172C82.7481 91.7754 83.3334 90.3623 83.3334 88.8889V54.8889L77.7779 49.3333V88.8889Z" fill="black"/>
</g>
</svg>
